<?xml version="1.0" encoding="UTF-8" standalone="no"?>
<!-- Created with Inkscape (http://www.inkscape.org/) -->

<svg
   version="1.1"
   id="svg2"
   width="663.13562"
   height="568.40283"
   viewBox="0 0 663.13562 568.40283"
   sodipodi:docname="AAR Logo - Vertical - True Pantone Colours.svg"
   inkscape:version="1.2.1 (9c6d41e410, 2022-07-14)"
   xmlns:inkscape="http://www.inkscape.org/namespaces/inkscape"
   xmlns:sodipodi="http://sodipodi.sourceforge.net/DTD/sodipodi-0.dtd"
   xmlns="http://www.w3.org/2000/svg"
   xmlns:svg="http://www.w3.org/2000/svg">
  <defs
     id="defs6">
    <clipPath
       clipPathUnits="userSpaceOnUse"
       id="clipPath874">
      <g
         id="g878">
        <path
           d="M 578.798,882.115 H 1178.8 v -600 H 578.798 Z"
           id="path876"
           style="stroke-width:0.1" />
      </g>
    </clipPath>
    <clipPath
       clipPathUnits="userSpaceOnUse"
       id="clipPath880">
      <g
         id="g884">
        <path
           d="M 578.798,882.115 H 1178.8 v -600 H 578.798 Z"
           id="path882"
           style="stroke-width:0.1" />
      </g>
    </clipPath>
  </defs>
  <sodipodi:namedview
     id="namedview4"
     pagecolor="#ffffff"
     bordercolor="#000000"
     borderopacity="0.25"
     inkscape:showpageshadow="2"
     inkscape:pageopacity="0.0"
     inkscape:pagecheckerboard="0"
     inkscape:deskcolor="#d1d1d1"
     showgrid="false"
     inkscape:zoom="0.73019955"
     inkscape:cx="26.020284"
     inkscape:cy="345.11114"
     inkscape:window-width="1920"
     inkscape:window-height="1017"
     inkscape:window-x="-8"
     inkscape:window-y="-8"
     inkscape:window-maximized="1"
     inkscape:current-layer="g8" />
  <g
     id="g8"
     inkscape:groupmode="layer"
     inkscape:label="ink_ext_XXXXXX"
     transform="matrix(1.3333333,0,0,-1.3333333,-840.12751,1063.8895)">
    <path
       d="m 921.878,744.345 16.873,29.226 159.409,-276.111 h -33.74 z M 1068.85,445.788 h -35.34 l -17.14,29.672 h 35.34 z m -30.91,-51.673 H 719.672 l 17.132,29.673 H 1020.8 Z m -349.19,51.673 17.131,29.672 h 35.353 L 724.102,445.788 Z M 659.319,497.46 818.795,773.68 835.725,744.356 693.179,497.46 Z m 232.187,194.28 17.67,30.605 129.834,-224.885 h -35.34 z M 753.936,497.46 h -35.353 l 129.843,224.896 17.677,-30.616 z m 237.036,-22 17.128,-29.672 H 749.506 l 17.131,29.672 z m -211.633,22 99.466,172.28 99.465,-172.28 z m 99.459,277.501 17.677,-30.616 -17.67,-30.606 -17.677,30.617 z m 243.272,-291.528 4.8,8.312 -176.308,305.37 -23.567,0.092 -17.819,-30.862 -17.939,31.071 -24.934,-0.096 -17.877,-30.964 -17.758,30.759 h -23.747 l -176.248,-305.272 5.266,-9.121 4.192,-7.262 h 40.347 l -20.173,-34.941 5.301,-9.182 4.747,-7.549 h 41.048 l -20.906,-36.21 4.939,-7.904 4.364,-7.559 H 1057.8 l 4.52,7.837 4.6,7.962 -20.71,35.874 h 41.42 l 3.53,6.116 6.31,10.314 -20.35,35.242 h 40.34 l 4.61,7.973"
       style="fill:#001489;fill-opacity:1;fill-rule:nonzero;stroke:none;stroke-width:0.1"
       id="path20"
       clip-path="url(#clipPath880)" />
    <path
       d="m 921.878,744.345 16.873,29.226 159.409,-276.111 h -33.74 z M 1068.85,445.788 h -35.34 l -17.14,29.672 h 35.34 z m -30.91,-51.673 H 719.672 l 17.132,29.673 H 1020.8 Z m -349.19,51.673 17.131,29.672 h 35.353 L 724.102,445.788 Z M 659.319,497.46 818.795,773.68 835.725,744.356 693.179,497.46 Z m 232.187,194.28 17.67,30.605 129.834,-224.885 h -35.34 z M 753.936,497.46 h -35.353 l 129.843,224.896 17.677,-30.616 z m 237.036,-22 17.128,-29.672 H 749.506 l 17.131,29.672 z m -211.633,22 99.466,172.28 99.465,-172.28 z m 99.459,277.501 17.677,-30.616 -17.67,-30.606 -17.677,30.617 z m 243.272,-291.528 4.8,8.312 -176.308,305.37 -23.567,0.092 -17.819,-30.862 -17.939,31.071 -24.934,-0.096 -17.877,-30.964 -17.758,30.759 h -23.747 l -176.248,-305.272 5.266,-9.121 4.192,-7.262 h 40.347 l -20.173,-34.941 5.301,-9.182 4.747,-7.549 h 41.048 l -20.906,-36.21 4.939,-7.904 4.364,-7.559 H 1057.8 l 4.52,7.837 4.6,7.962 -20.71,35.874 h 41.42 l 3.53,6.116 6.31,10.314 -20.35,35.242 h 40.34 z"
       style="fill:none;stroke:#27337b;stroke-width:1;stroke-linecap:butt;stroke-linejoin:miter;stroke-miterlimit:10;stroke-dasharray:none;stroke-opacity:1"
       id="path22"
       clip-path="url(#clipPath874)" />
  </g>
</svg>
