<?xml version="1.0" encoding="UTF-8" standalone="no"?>
<!-- Created with Inkscape (http://www.inkscape.org/) -->

<svg
   version="1.1"
   id="svg2"
   width="663.13531"
   height="568.4032"
   viewBox="0 0 663.13531 568.4032"
   sodipodi:docname="AAR.svg"
   inkscape:version="1.1.2 (b8e25be833, 2022-02-05)"
   xmlns:inkscape="http://www.inkscape.org/namespaces/inkscape"
   xmlns:sodipodi="http://sodipodi.sourceforge.net/DTD/sodipodi-0.dtd"
   xmlns="http://www.w3.org/2000/svg"
   xmlns:svg="http://www.w3.org/2000/svg">
  <defs
     id="defs6" />
  <sodipodi:namedview
     id="namedview4"
     pagecolor="#ffffff"
     bordercolor="#000000"
     borderopacity="0.25"
     inkscape:showpageshadow="2"
     inkscape:pageopacity="0.0"
     inkscape:pagecheckerboard="0"
     inkscape:deskcolor="#d1d1d1"
     showgrid="false"
     inkscape:zoom="1.0326581"
     inkscape:cx="329.73159"
     inkscape:cy="309.87991"
     inkscape:window-width="1920"
     inkscape:window-height="1009"
     inkscape:window-x="-8"
     inkscape:window-y="-8"
     inkscape:window-maximized="1"
     inkscape:current-layer="g8"
     inkscape:pageshadow="2"
     fit-margin-top="0"
     fit-margin-left="0"
     fit-margin-right="0"
     fit-margin-bottom="0" />
  <g
     id="g8"
     inkscape:groupmode="layer"
     inkscape:label="ink_ext_XXXXXX"
     transform="matrix(1.3333333,0,0,-1.3333333,-840.12723,1063.8897)">
    <path
       id="path920"
       style="fill:#001489;fill-opacity:1;stroke:#27337b;stroke-width:1.33333;stroke-linecap:butt;stroke-linejoin:miter;stroke-miterlimit:10;stroke-dasharray:none;stroke-opacity:1"
       d="M 348.1875,0.66796875 314.94336,0.796875 291.10742,42.082031 267.42969,1.0703125 H 235.76758 L 0.76953125,408.09961 l 7.02148435,12.16016 5.5898434,9.68359 h 53.794922 l -26.896484,46.58789 7.068359,12.24219 6.328125,10.06445 h 54.730469 l -27.873047,48.28125 6.583985,10.53906 5.818359,10.07813 H 570.27148 l 6.02735,-10.44922 6.13281,-10.61719 -27.61328,-47.83203 h 55.22656 l 4.70703,-8.1543 8.41407,-13.75195 -27.13282,-46.98828 h 53.78516 l 6.14648,-10.63086 6.40039,-11.08203 L 427.28906,1.0703125 395.86523,0.94726562 372.10742,42.095703 Z M 331.60352,30.607422 355.17188,71.429688 331.61328,112.23828 308.04297,71.414062 Z M 251.59961,32.316406 274.17188,71.414062 84.111328,400.60938 H 38.964844 Z M 411.54102,32.460938 624.08594,400.60938 H 579.09961 L 389.04297,71.429688 Z m -120.4336,68.287112 23.56836,40.82226 -149.55469,259.03907 h -47.13867 z m 81,0.0156 173.11133,299.84571 H 498.09961 L 348.54688,141.57031 Z m -40.49414,70.13867 132.61914,229.70704 H 198.99023 Z m -230.5664,259.04102 h 47.13671 l -22.84179,39.5625 H 78.205078 Z m 81.00781,0 h 299.11328 l 22.83789,39.5625 H 159.21289 Z m 332.97851,0 h 47.11914 l 22.85352,39.5625 h -47.11914 z m -372.75586,68.89453 h 378.66211 l 22.85352,39.56445 H 119.43555 Z"
       transform="matrix(0.75000002,0,0,-0.75000002,630.09565,797.91714)" />
  </g>
</svg>
