<?xml version="1.0" encoding="UTF-8" standalone="no"?>
<svg
   xmlns:dc="http://purl.org/dc/elements/1.1/"
   xmlns:cc="http://creativecommons.org/ns#"
   xmlns:rdf="http://www.w3.org/1999/02/22-rdf-syntax-ns#"
   xmlns:svg="http://www.w3.org/2000/svg"
   xmlns="http://www.w3.org/2000/svg"
   xmlns:sodipodi="http://sodipodi.sourceforge.net/DTD/sodipodi-0.dtd"
   xmlns:inkscape="http://www.inkscape.org/namespaces/inkscape"
   width="675.39606mm"
   height="675.39606mm"
   viewBox="0 0 675.39606 675.39606"
   version="1.1"
   id="svg8"
   inkscape:version="1.0.2-2 (e86c870879, 2021-01-15)"
   sodipodi:docname="McMaster.svg">
  <defs
     id="defs2" />
  <sodipodi:namedview
     id="base"
     pagecolor="#ffffff"
     bordercolor="#666666"
     borderopacity="1.0"
     inkscape:pageopacity="0.0"
     inkscape:pageshadow="2"
     inkscape:zoom="0.175"
     inkscape:cx="1293.7311"
     inkscape:cy="967.51661"
     inkscape:document-units="mm"
     inkscape:current-layer="layer1"
     inkscape:document-rotation="0"
     showgrid="false"
     fit-margin-top="153.16858"
     fit-margin-left="0"
     fit-margin-right="0"
     fit-margin-bottom="153.16858"
     inkscape:window-width="2560"
     inkscape:window-height="1377"
     inkscape:window-x="2552"
     inkscape:window-y="-8"
     inkscape:window-maximized="1"
     lock-margins="false" />
  <metadata
     id="metadata5">
    <rdf:RDF>
      <cc:Work
         rdf:about="">
        <dc:format>image/svg+xml</dc:format>
        <dc:type
           rdf:resource="http://purl.org/dc/dcmitype/StillImage" />
        <dc:title></dc:title>
      </cc:Work>
    </rdf:RDF>
  </metadata>
  <g
     inkscape:label="Layer 1"
     inkscape:groupmode="layer"
     id="layer1"
     transform="translate(-344.53544,253.16956)">
    <path
       style="fill:#454f59;fill-opacity:1;stroke:#454f59;stroke-width:0.264583;stroke-opacity:1"
       d="m 940.16007,265.36873 c 26.2676,-10.57302 50.2892,-33.49697 64.16943,-61.23702 3.697,-7.38862 6.3062,-14.24779 8.0321,-21.1151 1.8715,-7.44654 1.7496,-2.35559 1.7496,-73.03839 V 46.181043 l -83.93913,0.0666 -83.939,0.0665 0.023,63.896877 c 0.018,49.07648 0.099,64.35714 0.3474,65.88125 2.2059,13.50438 8.2231,27.99382 17.3055,41.67187 5.1584,7.76862 9.834,13.51645 16.5489,20.344 13.6774,13.90676 29.0387,23.77122 45.9441,29.50356 l 3.8533,1.30656 3.3648,-1.1358 c 1.8506,-0.62468 4.7935,-1.71085 6.5398,-2.41374 z"
       id="path1297" />
    <path
       style="fill:#730030;fill-opacity:1;stroke:#454f59;stroke-width:0.264583;stroke-opacity:1"
       d="m 926.53457,88.581343 c 1.2582,-1.70852 2.9965,-2.57386 4.667,-2.32335 0.9476,0.14212 1.5086,0.45165 2.5014,1.38027 0.7038,0.65839 1.3513,1.42269 1.4389,1.69846 0.153,0.48222 0.6086,0.50139 11.9152,0.50139 h 11.7562 v -13.36146 -13.36145 h -2.1167 -2.1167 v 11.64166 11.64167 l -4.6963,-0.003 -4.6964,-0.003 -2.6458,-0.94862 c -5.8028,-2.08049 -6.5848,-2.29216 -8.7313,-2.36317 l -2.1166,-0.07 -0.069,-12.36796 c -0.068,-12.28898 -0.072,-12.36494 -0.5904,-11.89595 -0.4251,0.38468 -0.5954,0.41071 -0.9207,0.14072 -0.3547,-0.29438 -0.4068,1.03254 -0.468,11.91026 l -0.069,12.24155 -2.2489,0.0494 c -2.0278,0.0445 -2.6653,0.20313 -6.4823,1.61312 l -4.2334,1.56377 h -5.0271 -5.027 l -0.069,-11.57552 -0.069,-11.57552 h -1.9816 -1.9816 v 13.36146 13.36145 h 11.576 11.576 l 0.9256,-1.25677 z"
       id="path1397" />
    <path
       style="fill:#730030;fill-opacity:1;stroke:#454f59;stroke-width:0.264583;stroke-opacity:1"
       d="m 902.04917,90.036553 c -0.07,-0.1819 -0.096,-6.40292 -0.058,-13.82448 l 0.069,-13.49375 2.1828,-0.0769 2.1828,-0.0768 v -1.80899 c 0,-1.12587 0.1249,-1.9116 0.3307,-2.08072 0.1864,-0.15315 2.409,-0.32215 5.0932,-0.38728 4.5673,-0.11081 4.8601,-0.15084 7.1438,-0.9768 3.0789,-1.1136 6.713,-1.39221 8.8596,-0.67923 0.8881,0.29497 1.4401,0.64184 1.5224,0.95666 0.071,0.27164 0.2274,0.43319 0.3474,0.35901 0.1201,-0.0742 0.3319,0.0681 0.4707,0.31628 0.2254,0.40276 0.3405,0.36323 1.0722,-0.36849 1.3413,-1.34136 2.7746,-1.73985 5.7732,-1.60509 2.0953,0.0942 3.0483,0.28531 4.9732,0.99747 2.2993,0.85068 2.5543,0.88643 7.4084,1.03926 l 5.0271,0.15828 0.077,2.05052 0.077,2.05052 h 2.2378 2.2378 v 13.89062 13.89063 h -11.9029 -11.9029 l -0.6548,-1.03725 c -1.5751,-2.49516 -4.1055,-3.32173 -6.1157,-1.99778 -0.5914,0.38949 -1.4248,1.2291 -1.852,1.86578 l -0.7769,1.15761 -11.8484,0.006 c -9.2391,0.005 -11.8763,-0.067 -11.9751,-0.32492 z"
       id="path1395" />
    <path
       style="fill:#fab83a;fill-opacity:1;stroke:#454f59;stroke-width:0.264583;stroke-opacity:1"
       d="m 933.45827,263.70659 c 13.9654,-4.75703 27.5951,-13.02655 39.3976,-23.90373 17.3059,-15.94914 31.13903,-38.5318 35.94683,-58.6835 1.6628,-6.96942 1.6043,-5.25457 1.6043,-47.06364 V 95.923533 h -80.16873 -80.1688 v 38.264477 c 0,41.91541 -0.056,40.25964 1.5902,47.11677 2.6077,10.86353 8.3949,23.51567 15.9507,34.87187 13.5636,20.38588 32.2125,36.29927 52.5737,44.86188 3.422,1.43909 9.4235,3.65244 9.9669,3.67583 0.1703,0.007 1.6586,-0.44617 3.3073,-1.00777 z"
       id="path1301" />
    <path
       style="fill:#454f59;fill-opacity:1;stroke:#454f59;stroke-width:0.264583;stroke-opacity:1"
       d="m 563.10277,23.393913 c 4.1083,-0.2344 6.5506,-0.22527 11.1125,0.0415 8.6858,0.50798 11.7361,0.485 12.8131,-0.0965 1.7385,-0.93875 2.0692,-3.39164 0.6373,-4.72778 -0.9948,-0.92829 -2.0945,-1.20015 -5.4868,-1.35643 -5.9036,-0.27196 -8.6469,-2.36237 -9.9544,-7.5853804 -0.822,-3.28313 -0.4697,-12.39304 1.9698,-50.9322896 1.2619,-19.93635 2.3628,-36.87299 2.4465,-37.63698 0.094,-0.85967 0.2792,-1.38906 0.4854,-1.38906 0.2057,0 6.6225,18.23746 16.7799,47.69115 9.0458,26.2301296 16.6235,48.29126 16.8395,49.02474 0.4563,1.54958 1.5181,2.68575 2.7378,2.9297 0.7577,0.15153 0.9738,0.0498 1.8425,-0.86734 0.5414,-0.57146 1.1484,-1.50979 1.3491,-2.08519 0.2007,-0.5754 8.4578,-22.4179004 18.3492,-48.53889 9.8914,-26.12099 18.219,-48.11779 18.5057,-48.88177 0.2942,-0.78391 0.686,-1.38907 0.8992,-1.38907 0.326,0 0.3777,6.15243 0.376,44.78073 0,48.05865 0,48.14609 -1.3269,50.87831 -1.1895,2.45722 -4.1774,3.77597 -9.2246,4.07143 -3.2588,0.19077 -3.8948,0.39157 -4.7719,1.50667 -0.6672,0.84818 -0.7395,2.73755 -0.1399,3.65271 0.966,1.47437 2.2827,1.54857 16.5857,0.93473 6.0351,-0.25901 8.8254,-0.25876 13.5327,0.001 11.4071,0.62998 13.0886,0.5179 14.0412,-0.93595 0.6562,-1.00154 0.5295,-2.8424 -0.2603,-3.78105 -0.8893,-1.0568 -1.7918,-1.29565 -5.4181,-1.43391 -5.3887,-0.20545 -6.6841,-1.48889 -7.3966,-7.3283604 -0.1791,-1.46772 -0.2735,-18.74398 -0.2735,-50.0169196 0,-42.22854 0.047,-47.95696 0.4087,-49.34399 0.7355,-2.82408 1.6284,-3.30448 6.1413,-3.30448 2.7171,0 3.2823,-0.0781 4.3079,-0.59531 1.8893,-0.95269 2.6817,-3.34596 1.7222,-5.20139 -0.7028,-1.35916 -0.9099,-1.37769 -14.4504,-1.29313 l -12.5495,0.0784 -0.9795,0.60901 c -0.6426,0.39959 -1.2068,1.08195 -1.6408,1.98438 -0.3638,0.75645 -8.0974,20.54443 -17.1858,43.97328 -19.4993,50.2668796 -17.3569,44.8470196 -17.7274,44.8462196 -0.2583,-5.2e-4 -24.2993,-67.0795196 -29.9466,-83.5568296 -1.0628,-3.10074 -2.1293,-5.93845 -2.3702,-6.30603 -0.2408,-0.36758 -0.9346,-0.89386 -1.5417,-1.16951 -1.0323,-0.46867 -1.906,-0.50156 -13.469,-0.507 l -12.3651,-0.006 -0.8142,0.72761 c -1.0927,0.97641 -1.3019,2.45437 -0.5789,4.08903 0.7525,1.70108 2.1235,2.32644 5.1063,2.32911 2.754,0.002 5.3962,0.41294 6.3732,0.99007 1.1755,0.69443 1.5472,2.03211 1.5452,5.56172 0,5.02999 -5.7533,95.1847496 -6.2035,97.25907 -0.2169,0.9988 -0.6958,2.33047 -1.0643,2.95928 -1.2767,2.17864 -2.9977,2.924 -7.5309,3.26173 -4.3594,0.32478 -5.6525,1.13509 -5.6196,3.52138 0.019,1.35233 0.7041,2.3479 1.924,2.79449 0.9438,0.34552 1.5671,0.33294 11.4585,-0.2314 z"
       id="path1505" />
    <path
       style="fill:#454f59;fill-opacity:1;stroke:#454f59;stroke-width:0.264583;stroke-opacity:1"
       d="m 357.94445,23.394363 c 2.83765,-0.16435 6.52859,-0.22461 8.20208,-0.13392 1.67349,0.0907 5.33946,0.29192 8.1466,0.44718 5.72932,0.31689 7.52129,0.12395 8.49723,-0.91489 0.79317,-0.84429 0.97949,-2.25348 0.44648,-3.37673 -0.71807,-1.51321 -1.64083,-1.86068 -5.58216,-2.10191 -5.25874,-0.32188 -7.58086,-1.43303 -9.19585,-4.4003 -2.28682,-4.2016604 -2.25248,-6.8777304 0.68163,-53.11843 1.2558,-19.79083 2.35844,-36.90606 2.45033,-38.03385 0.1929,-2.36754 0.63272,-2.69444 1.24591,-0.92604 6.1426,17.71488 32.40194,93.93543 32.76558,95.10559 1.24288,3.99958 4.03683,4.66666 5.60981,1.33941 0.36231,-0.76639 9.02706,-23.5093004 19.25499,-50.53979 11.65236,-30.79501 18.72535,-49.14636 18.94201,-49.14636 0.51983,0 0.4911,89.7017596 -0.0297,92.62076 -0.39152,2.19455 -1.08817,3.77765 -2.0462,4.6499 -1.6044,1.46075 -4.96498,2.46323 -8.29398,2.47414 -1.01864,0.003 -2.29091,0.12795 -2.82726,0.27692 -2.24657,0.62396 -3.11025,3.34488 -1.59872,5.03657 1.08591,1.21535 2.35082,1.35613 9.4523,1.05204 13.67604,-0.58562 14.9368,-0.603 20.46739,-0.28208 8.8675,0.51454 11.9046,0.49611 12.9579,-0.0786 0.8446,-0.46092 1.6328,-1.76998 1.6328,-2.71207 0,-0.83852 -0.813,-2.12857 -1.658,-2.631 -0.668,-0.39722 -1.5881,-0.54563 -4.1973,-0.67703 -5.1924,-0.2615 -6.6031,-1.22366 -7.5653,-5.15997 -0.4111,-1.68175 -0.4553,-5.8413704 -0.5353,-50.38413 -0.062,-34.49236 0,-49.05589 0.2042,-50.29451 0.5964,-3.5685 1.5454,-4.20666 6.2687,-4.21547 4.5549,-0.008 6.1163,-0.84684 6.3632,-3.41674 0.1756,-1.82774 -0.082,-2.59645 -1.0702,-3.19925 -0.8145,-0.49666 -1.39,-0.52001 -12.84027,-0.52096 -7.78935,-6.4e-4 -12.38925,0.10017 -13.13463,0.28786 -0.67044,0.16882 -1.48272,0.63608 -1.95476,1.12448 -0.65678,0.67955 -4.04007,9.16294 -18.11325,45.41792 -11.33362,29.19739 -17.43089,44.5822896 -17.66865,44.5822896 -0.23511,0 -1.17467,-2.2842396 -2.66631,-6.4822896 -1.2668,-3.56526 -8.03782,-22.61526 -15.04669,-42.33333 -7.00888,-19.71807 -13.02804,-36.74401 -13.37591,-37.83542 -0.75231,-2.36027 -1.41477,-3.50555 -2.40212,-4.15281 -0.67198,-0.44052 -1.70758,-0.48326 -13.40558,-0.55334 -14.12128,-0.0846 -13.59453,-0.14754 -14.37384,1.71761 -0.5336,1.27708 -0.2433,2.7985 0.74978,3.92956 0.95487,1.08754 2.09554,1.43617 4.71386,1.44076 1.09141,0.002 2.74441,0.12679 3.67333,0.27752 3.63732,0.59019 4.13978,1.38748 4.07675,6.46883 -0.0504,4.06483 -5.48218,91.5412196 -5.89454,94.9293196 -0.4853,3.9874804 -1.64472,6.2797204 -3.70895,7.3328104 -1.1464,0.58485 -3.7187,1.05212 -5.81951,1.05714 -1.99124,0.005 -3.38928,0.43868 -4.27862,1.32803 -0.99626,0.99626 -1.07016,3.03148 -0.14896,4.10244 1.08082,1.25652 1.40288,1.27239 12.62967,0.62217 z"
       id="path1501" />
    <path
       style="fill:#454f59;fill-opacity:1;stroke:#454f59;stroke-width:0.264583;stroke-opacity:1"
       d="m 980.50907,24.089153 c 2.8376,0 8.0849,0.10665 11.6605,0.23699 l 6.5011,0.23699 0.8503,-0.76615 c 1.07363,-0.96741 1.33443,-2.30135 0.70813,-3.62126 -0.60253,-1.26967 -1.61723,-1.69394 -5.16623,-2.16024 -3.3432,-0.43926 -4.8686,-1.04558 -6.0685,-2.41215 -1.6814,-1.91506 -1.6395,-1.11786 -1.5452,-29.3933 l 0.085,-25.62088 0.6928,-2.53036 c 1.9567,-7.14692 7.5966,-13.99178 11.5385,-14.00351 1.56813,-0.005 2.56173,0.65299 4.50873,2.98395 2.4133,2.88934 3.5461,3.81214 5.3156,4.32994 3.6678,1.07329 7.7207,-0.79345 9.4739,-4.36358 0.6554,-1.33456 0.7355,-1.78586 0.7355,-4.14352 0,-2.42534 -0.07,-2.79411 -0.8429,-4.42509 -1.0456,-2.20734 -2.7256,-3.87856 -5.0485,-5.0221 -1.5941,-0.78475 -2.0309,-0.87622 -4.6052,-0.96433 -2.3566,-0.0807 -3.1748,0.002 -4.7727,0.48231 -5.00533,1.5044 -9.24473,5.02276 -14.53853,12.06577 -1.0309,1.37151 -2.0332,2.49365 -2.2272,2.49365 -0.2839,0 -0.3681,-1.45321 -0.4308,-7.4316 l -0.078,-7.43159 -0.7424,-0.6382 c -1.5481,-1.33095 -3.0746,-0.74312 -5.3873,2.07457 -3.2454,3.95423 -10.6369,9.03421 -15.3015,10.51633 -1.6848,0.53529 -2.9491,1.25278 -3.5469,2.01275 -0.7409,0.94184 -0.7576,2.81096 -0.032,3.53684 0.6512,0.65124 1.084,0.73938 4.3723,0.89034 3.4954,0.16048 4.7939,0.6704 5.4372,2.1351 0.2614,0.59528 0.5973,1.9753 0.7463,3.06671 0.3552,2.60001 0.4361,55.64195 0.087,56.76858 -1.0447,3.36847 -3.0004,4.5928 -8.186,5.12498 -3.3336,0.34211 -4.3346,0.97456 -4.6894,2.96293 -0.1072,0.60038 -0.01,1.19434 0.3126,1.81483 0.826,1.61458 1.0345,1.64951 8.4094,1.40954 3.638,-0.11838 8.9363,-0.21524 11.7739,-0.21524 z"
       id="path1497" />
    <path
       id="path1489"
       style="fill:#454f59;fill-opacity:1;stroke:#454f59;stroke-width:0.264583;stroke-opacity:1"
       d="m 923.31366,-68.531503 c -2.98521,-0.0021 -6.03231,0.1633 -7.81142,0.497125 -9.24439,1.734397 -16.9581,5.578211 -24.05899,11.988403 -9.76971,8.819462 -14.20807,19.727704 -14.19706,34.891424 0,7.130415 0.95461,12.7129645 3.1724,18.6531249 5.45391,14.6082011 16.93267,24.9389371 31.03378,27.9295481 2.0003,0.424233 7.12864,0.862807 8.59895,0.735357 0.43659,-0.03778 1.92479,-0.12909 3.3073,-0.202565 h 5e-4 c 6.95661,-0.369729 14.00926,-2.87483 20.03496,-7.116366 2.945,-2.073036 9.72717,-8.758343 11.16108,-11.0019036 0.76859,-1.2025842 1.08312,-1.9797448 1.08312,-2.6763133 0,-1.7650883 -1.63893,-3.0517306 -2.98225,-2.3414831 -0.32448,0.1715293 -1.78972,1.4541499 -3.25612,2.8504885 -5.39951,5.1412505 -9.55273,7.6487865 -14.95412,9.0278745 -8.68579,2.217684 -18.17348,0.579649 -25.75398,-4.445741 -2.35799,-1.5631848 -6.18093,-5.3909118 -8.12612,-8.1364401 -5.20139,-7.3417112 -8.14507,-17.0557299 -8.15817,-26.9223859 0,-3.974041 0.27647,-5.172392 1.36168,-5.790856 0.50041,-0.285168 6.3835,-0.377058 30.97329,-0.484214 l 30.35475,-0.132291 0.73329,-0.735357 0.7338,-0.735356 -0.03,-3.894852 c -0.026,-3.430349 -0.12621,-4.262755 -0.83561,-6.978385 -1.90238,-7.282498 -4.66328,-12.338288 -8.9054,-16.306509 -4.43658,-4.150228 -9.50394,-6.729518 -16.03983,-8.164354 -1.53109,-0.336127 -4.45466,-0.505883 -7.43985,-0.507973 z m -2.06449,5.794983 c 3.89012,0.02844 7.89239,1.021556 10.80969,2.747645 5.6802,3.36079 9.50711,12.435549 7.17319,17.010327 -1.17498,2.303251 -3.54869,3.282447 -10.0521,4.147026 -4.21449,0.560308 -33.82547,0.832194 -34.32969,0.315225 -1.13249,-1.16123 0.85678,-6.851439 4.09848,-11.72382 4.69598,-7.057919 11.68262,-11.45458 19.64013,-12.359455 0.87108,-0.09903 1.7626,-0.14351 2.6603,-0.136948 z" />
    <path
       style="fill:#454f59;fill-opacity:1;stroke:#454f59;stroke-width:0.264583;stroke-opacity:1"
       d="m 860.58327,25.657853 c 4.5802,-1.02382 8.9844,-3.55785 12.9123,-7.42924 3.5773,-3.5257 4.615,-6.22509 2.9453,-7.66129 -1.1453,-0.9851704 -1.7245,-0.8112004 -4.1652,1.25096 -5.1198,4.32589 -8.2674,5.66196 -11.8003,5.00889 -3.7094,-0.68572 -5.7802,-3.12498 -7.1128,-8.3783104 -1.0959,-4.32019 -1.2098,-8.25790997 -1.1241,-38.8755996 0.075,-26.84329 0.1086,-28.63039 0.5491,-29.30261 l 0.4691,-0.71587 h 9.9278 9.9278 l 0.6319,-0.6319 c 1.1814,-1.18143 1.2956,-5.20673 0.1793,-6.32369 -0.578,-0.57845 -0.6991,-0.58652 -10.7513,-0.71733 -7.8399,-0.10201 -10.2452,-0.2109 -10.5102,-0.4758 -0.2632,-0.2632 -0.3745,-2.50086 -0.4758,-9.57036 l -0.1323,-9.22686 -0.6414,-0.68224 c -0.7745,-0.82367 -1.8092,-0.88372 -2.7312,-0.15851 -0.3662,0.28806 -1.4501,2.11309 -2.4087,4.05564 -0.9586,1.94255 -2.4907,4.5939 -3.4048,5.8919 -2.1137,3.00161 -6.1676,7.06095 -9.7316,9.74454 -1.528,1.15052 -3.2228,2.51232 -3.7662,3.02623 -1.6796,1.58838 -1.8479,3.16418 -0.4706,4.40692 0.5219,0.47093 1.0276,0.53841 4.5944,0.61311 2.2044,0.0462 4.1271,0.2009 4.2726,0.34385 0.1721,0.1691 0.3174,12.29475 0.4158,34.70876 0.1639,37.33788 0.091,35.49586 1.5966,40.12985 1.7235,5.30326 5.4211,8.98104 10.7775,10.71975 2.674,0.86801 6.8,0.97056 10.027,0.24921 z"
       id="path1485" />
    <path
       style="fill:#454f59;fill-opacity:1;stroke:#454f59;stroke-width:0.264583;stroke-opacity:1"
       d="m 797.97047,25.537543 c 3.7227,-0.603 7.943,-1.98004 11.4675,-3.74168 11.034,-5.51517 17.0872,-14.6762804 17.0825,-25.8533404 0,-9.2008896 -3.6521,-16.1991096 -10.9791,-21.0603696 -3.2289,-2.14225 -7.0186,-3.92921 -14.4198,-6.79925 -13.1759,-5.10934 -17.1232,-7.77137 -19.0665,-12.85823 -0.8778,-2.29799 -1.0094,-6.08103 -0.2931,-8.43271 1.3115,-4.30626 4.633,-7.5427 9.6738,-9.42601 2.818,-1.05283 7.4156,-1.30749 10.6569,-0.59029 6.5521,1.44973 9.7405,4.73485 13.3106,13.71413 1.7653,4.43999 3.3239,5.63395 5.2448,4.01764 1.1848,-0.99696 1.3602,-2.21319 1.3497,-9.35996 -0.011,-7.35722 -0.2053,-8.48353 -1.6907,-9.78769 -1.5622,-1.37167 -6.9498,-2.77994 -13.9072,-3.63523 -4.2325,-0.52032 -11.3954,-0.37715 -14.5387,0.29058 -6.4874,1.37815 -11.2649,3.8118 -15.5769,7.93483 -2.6452,2.52928 -4.1399,4.55595 -5.5766,7.56127 -1.6368,3.42375 -2.1781,5.85185 -2.1781,9.77063 0,5.29195 1.381,9.36149 4.4322,13.06062 3.9344,4.76981 9.2852,7.85461 21.1483,12.19239 10.494,3.8371 14.2586,6.15472 17.0746,10.5116896 1.6411,2.53903 2.1559,4.36585 2.2985,8.15614 0.2059,5.47423 -1.0537,9.1435904 -4.3674,12.7227004 -4.2525,4.59307 -9.822,6.86113 -16.8255,6.85187 -4.2911,-0.006 -6.5,-0.44642 -9.3986,-1.87526 -5.2778,-2.60167 -7.8276,-7.02409 -9.8234,-17.0378604 -1.334,-6.69319 -2.221,-8.37044 -4.4576,-8.42909 -1.3816,-0.0362 -2.3013,0.81178 -2.8154,2.59601 -0.7057,2.4491 -1.2142,19.0563004 -0.6461,21.1018404 0.4076,1.46781 1.6801,2.54948 4.6193,3.92669 5.4269,2.54286 12.7293,4.47814 18.8009,4.98257 3.0319,0.25189 5.5726,0.11552 9.4011,-0.50463 z"
       id="path1481" />
    <path
       id="path1473"
       style="fill:#454f59;fill-opacity:1;stroke:#454f59;stroke-width:0.264583;stroke-opacity:1"
       d="m 724.26016,-68.496896 c -5.48939,0.01651 -8.14287,0.415131 -12.96458,1.948736 -14.6902,4.672277 -27.23428,16.430307 -27.8474,26.102283 -0.13128,2.071079 -0.11086,2.167519 0.62685,2.993099 0.54499,0.609917 1.06961,0.893948 1.84071,0.997347 2.4103,0.323241 8.74226,-2.165192 10.73526,-4.218861 1.14109,-1.175808 1.7735,-2.327381 3.8101,-6.938592 3.20501,-7.256462 6.51301,-11.384624 10.83241,-13.518038 2.53662,-1.252935 4.27705,-1.683518 7.56854,-1.873277 6.15249,-0.3547 9.45796,1.310005 11.04998,5.565034 0.9797,2.618661 1.17772,5.170858 1.20301,15.514823 0.024,9.857501 0.0199,9.929786 -0.58756,11.163644 -0.80079,1.625679 -1.69574,2.196623 -10.50065,6.698826 -16.73439,8.556784 -22.25228,11.869129 -27.72646,16.6434293 -3.96861,3.4612526 -7.30842,8.5602496 -8.24603,12.5899331 -0.52628,2.2622669 -0.52125,6.4920546 0.0104,8.5607256 1.45759,5.677297 6.10476,10.149549 12.28246,11.819943 3.01286,0.814679 8.02058,0.710089 11.69334,-0.243919 6.2299,-1.61843 12.12228,-5.112279 19.39467,-11.501094 1.60081,-1.40626 3.07986,-2.52595 3.28716,-2.487718 0.20719,0.03821 1.10371,1.736646 1.99213,3.773937 3.06488,7.028286 5.4625,9.469755 9.67329,9.851602 6.13659,0.556445 17.31473,-6.747695 18.61643,-12.164642 0.39291,-1.634649 -1.14612,-3.4022771 -2.56884,-2.9507127 -0.30099,0.095594 -1.47362,1.0565867 -2.60604,2.1352667 -2.27018,2.162572 -3.32533,2.731611 -5.06325,2.731611 -1.58649,0 -2.76833,-0.850953 -3.68453,-2.653083 -1.6623,-3.269932 -1.60314,-2.04761 -1.78025,-36.902125 -0.1283,-25.25678 -0.23297,-31.966428 -0.51107,-32.808332 -1.7544,-5.311881 -6.31386,-8.869733 -13.28706,-10.36836 -1.71418,-0.368406 -3.35425,-0.473128 -7.24297,-0.461486 z m 6.11333,45.622553 c 0.08,0 0.0978,5.030391 0.0408,11.178646 -0.091,9.8121523 -0.16074,11.35652522 -0.57412,12.63385416 -0.88641,2.73875494 -2.05206,4.54289574 -4.52996,7.01145824 -2.82339,2.8127056 -5.53458,4.5159876 -9.04647,5.6838846 -1.80671,0.600843 -3.07711,0.839206 -4.8948,0.918819 -2.73319,0.119644 -3.09734,0.07424 -5.36506,-0.670772 -4.2704,-1.402979 -6.54232,-4.7397191 -6.56032,-9.6360982 -0.0216,-5.8871643 3.05885,-10.7669276 9.47074,-15.0032238 2.2992,-1.519079 21.06795,-12.116568 21.45916,-12.116568 z" />
    <path
       style="fill:#454f59;fill-opacity:1;stroke:#454f59;stroke-width:0.264583;stroke-opacity:1"
       d="m 525.02887,25.333273 c 7.428,-1.62061 13.7821,-5.00725 19.0974,-10.17868 4.5082,-4.38614 5.6944,-6.7183104 4.3113,-8.4766104 -1.1669,-1.48352 -2.2457,-1.13065 -4.5561,1.49031 -0.8362,0.94857 -2.4841,2.4508304 -3.6619,3.3383704 -9.2298,6.9549 -22.1112,7.34514 -32.2013,0.97554 -11.3238,-7.1483604 -18.7521,-23.80371 -17.5209,-39.28439 0.817,-10.27354 4.3461,-19.17257 10.4236,-26.28447 2.7903,-3.2652 6.2036,-5.81772 10.5648,-7.90048 6.7085,-3.20377 12.3529,-3.16854 16.9414,0.10573 2.9734,2.12175 4.9453,4.65766 8.7745,11.28411 3.72,6.43756 4.9941,7.89569 7.1049,8.13139 1.4623,0.16328 2.3643,-0.55535 2.9642,-2.36145 0.3853,-1.16016 0.4499,-2.39909 0.4263,-8.18495 -0.035,-8.70438 -0.087,-8.85329 -3.8828,-11.21837 -3.6808,-2.29342 -9.4453,-4.20387 -15.2135,-5.04203 -3.8281,-0.55624 -10.2646,-0.37738 -14.0564,0.3906 -12.2369,2.47842 -22.5561,9.31082 -30.3223,20.0766 -1.9044,2.63995 -5.23475,9.16594 -6.38745,12.51651 -5.8122,16.89552 -1.7556,35.86760963 10.38895,48.58762 6.4103,6.71413 13.8098,10.82838 22.2532,12.37329 3.0513,0.5583 11.3233,0.36581 14.5521,-0.33864 z"
       id="path1469" />
    <path
       style="fill:#454f59;fill-opacity:1;stroke:#454f59;stroke-width:0.264583;stroke-opacity:1"
       d="m 718.36367,56.874953 c 2.8986,-2.03867 3.4063,-7.51703 0.9553,-10.30855 -1.0986,-1.25122 -2.1675,-1.76851 -3.6544,-1.76851 -3.8976,0 -6.5121,4.48503 -5.1851,8.89448 1.1213,3.72591 4.9273,5.26226 7.8842,3.18258 z"
       id="path1465" />
    <path
       style="fill:#454f59;fill-opacity:1;stroke:#454f59;stroke-width:0.264583;stroke-opacity:1"
       d="m 496.20797,57.322723 c 1.2918,-0.58669 2.5724,-2.06493 2.9866,-3.44738 0.1661,-0.5544 0.302,-1.84379 0.302,-2.86532 0,-3.56098 -2.1756,-6.22667 -5.0819,-6.22667 -3.2716,0 -5.4837,2.66965 -5.4956,6.63253 -0.01,2.22507 0.4333,3.49258 1.6612,4.78519 1.5672,1.64969 3.5813,2.05113 5.6277,1.12165 z"
       id="path1461" />
    <path
       style="fill:#454f59;fill-opacity:1;stroke:#454f59;stroke-width:0.264583;stroke-opacity:1"
       d="m 715.66117,120.94028 c 0.6548,1e-4 3.3089,0.10245 5.898,0.22745 4.7001,0.22691 4.7084,0.22632 5.3578,-0.38376 0.6383,-0.59961 0.8316,-1.59074 0.4861,-2.4913 -0.248,-0.64633 -1.3768,-1.12656 -3.1432,-1.33729 -2.071,-0.24705 -3.2248,-0.80206 -3.7817,-1.81909 -0.4129,-0.75404 -0.4627,-2.82683 -0.5837,-24.343657 l -0.1323,-23.51944 -0.6809,-0.50827 c -0.9943,-0.7423 -1.8707,-0.40003 -3.3203,1.29681 -1.6827,1.96953 -4.5501,4.07791 -7.2963,5.36481 -1.2508,0.58615 -2.3949,1.06574 -2.5424,1.06574 -0.4468,0 -1.6382,1.58989 -1.6382,2.18606 0,0.30688 0.2589,0.83352 0.5753,1.17032 0.4716,0.50204 0.8649,0.61712 2.1828,0.63874 2.3726,0.0389 2.8588,0.24059 3.4596,1.4351 0.5123,1.01854 0.5292,1.57915 0.5292,17.58853 0,13.540847 -0.067,16.694747 -0.3686,17.410297 -0.4777,1.13251 -1.7861,1.78554 -4.0529,2.02287 -2.3028,0.2411 -3.1192,0.83833 -3.1192,2.28186 0,0.70719 0.1799,1.21899 0.5631,1.60216 0.5512,0.55121 0.6664,0.55829 5.4901,0.33745 2.7099,-0.12406 5.4628,-0.22549 6.1177,-0.22539 z"
       id="path1457" />
    <path
       style="fill:#454f59;fill-opacity:1;stroke:#454f59;stroke-width:0.264583;stroke-opacity:1"
       d="m 626.49657,121.06736 c 1.8102,-0.13044 5.1946,-0.10673 8.3552,0.0585 2.9218,0.15277 5.638,0.19606 6.0359,0.0962 1.3207,-0.33147 1.7529,-2.50867 0.6891,-3.47137 -0.261,-0.23621 -1.4689,-0.60164 -2.6842,-0.81207 -1.2152,-0.21042 -2.5072,-0.60054 -2.871,-0.86692 -1.4636,-1.07169 -1.4385,-0.7547 -1.3584,-17.105477 0.046,-9.36212 0.1795,-15.53276 0.3525,-16.27188 0.9811,-4.19111 4.9633,-8.7452 7.0641,-8.07844 0.2806,0.0891 1.1998,0.94736 2.0425,1.90732 1.6265,1.85255 2.6731,2.46696 4.2024,2.46696 4.7025,0 6.9085,-6.00692 3.5457,-9.65503 -3.1243,-3.38948 -8.3842,-2.90866 -12.7384,1.16443 -0.9627,0.90054 -2.1999,2.22683 -2.7493,2.9473 -1.5135,1.98463 -1.684,1.81254 -1.684,-1.69967 0,-3.70804 -0.1652,-4.58593 -0.9608,-5.10725 -0.957,-0.62705 -1.7066,-0.26756 -3.6913,1.77019 -2.2867,2.3479 -5.1157,4.31252 -7.8817,5.47345 -2.5488,1.06982 -3.1012,1.55025 -3.1346,2.72636 -0.035,1.24513 0.793,1.85063 2.5347,1.85252 0.7479,8e-4 1.7981,0.12323 2.3338,0.27204 1.6954,0.47088 1.6718,0.20072 1.6718,19.0877 0,16.721227 0,16.853287 -0.5576,17.594617 -0.6436,0.86217 -1.6122,1.23797 -4.2049,1.63148 -1.3541,0.2055 -1.9766,0.43468 -2.3151,0.85224 -0.6647,0.81984 -0.5852,2.00193 0.1864,2.77352 0.5825,0.58255 0.8618,0.64753 2.7119,0.63097 1.1344,-0.0102 3.4318,-0.11713 5.1053,-0.23771 z"
       id="path1453" />
    <path
       style="fill:#454f59;fill-opacity:1;stroke:#454f59;stroke-width:0.264583;stroke-opacity:1"
       d="m 494.33717,120.93637 c 0.7276,5.3e-4 3.4263,0.10348 5.997,0.22852 l 4.674,0.22734 0.6838,-0.68378 c 0.8979,-0.89789 0.8778,-1.87739 -0.058,-2.81279 -0.594,-0.594 -1.0804,-0.77981 -2.4474,-0.93492 -2.1861,-0.24804 -3.2637,-0.70005 -3.8683,-1.62258 -0.4567,-0.69687 -0.491,-2.05297 -0.6159,-24.387217 l -0.1323,-23.64932 -0.6246,-0.50572 c -1.0487,-0.84907 -1.5774,-0.62735 -3.7517,1.57343 -2.4486,2.47838 -5.0591,4.27144 -8.0102,5.50203 -2.4515,1.02227 -3.0916,1.61939 -3.0916,2.88419 0,1.17318 0.7809,1.70504 2.5063,1.70695 2.0277,0.002 3.2861,0.43957 3.6579,1.27121 0.2341,0.5238 0.3385,5.12516 0.3953,17.42861 0.084,18.139527 0.09,18.049677 -1.3522,18.994757 -0.3618,0.23703 -1.473,0.5504 -2.4695,0.69638 -2.38,0.34866 -3.1354,0.66353 -3.4972,1.45769 -0.4621,1.01402 -0.3599,1.65261 0.3834,2.39588 l 0.6824,0.68237 4.8077,-0.22711 c 2.6443,-0.12491 5.4031,-0.22657 6.1307,-0.22592 z"
       id="path1449" />
    <path
       style="fill:#454f59;fill-opacity:1;stroke:#454f59;stroke-width:0.264583;stroke-opacity:1"
       d="m 431.36632,120.93637 c 0.72761,5.3e-4 3.40652,0.10221 5.95313,0.22569 4.32172,0.20954 4.66982,0.19155 5.22472,-0.27004 0.92083,-0.76597 1.03926,-1.97723 0.27967,-2.86031 -0.528,-0.61382 -0.98982,-0.78994 -2.85432,-1.08848 -2.39043,-0.38275 -3.35082,-0.89579 -3.94391,-2.10686 -0.55748,-1.13835 -0.43937,-29.619147 0.13193,-31.813097 0.54909,-2.10868 1.49119,-3.61288 3.52245,-5.62412 3.35625,-3.32314 7.22887,-4.56354 11.45092,-3.66771 3.97487,0.84338 6.56917,3.31636 7.83064,7.46443 0.61345,2.0172 0.81396,32.183317 0.22331,33.596927 -0.52449,1.25528 -1.35965,1.74459 -3.51719,2.06066 -2.45659,0.35989 -3.16546,0.67582 -3.53883,1.57721 -0.41729,1.00743 -0.14722,1.98568 0.70175,2.54195 0.62611,0.41024 1.18652,0.42559 6.41194,0.17571 3.14924,-0.15059 6.97599,-0.1854 8.50399,-0.0773 1.528,0.10805 3.7472,0.20908 4.9316,0.2245 2.4609,0.032 3.1578,-0.32265 3.4329,-1.7473 0.1363,-0.70555 0.033,-0.98001 -0.6082,-1.62158 -0.6281,-0.62805 -1.0909,-0.80845 -2.4784,-0.96587 -2.1857,-0.248 -3.2635,-0.7 -3.8683,-1.62217 -0.451,-0.68792 -0.4934,-1.84107 -0.6297,-17.153867 -0.1283,-14.41192 -0.2036,-16.67279 -0.6163,-18.51639 -0.6641,-2.96698 -1.5593,-5.03368 -3.0653,-7.07705 -2.48556,-3.37232 -5.66801,-5.2812 -9.97946,-5.98579 -5.64058,-0.9218 -10.76519,0.96894 -16.29433,6.01187 -1.13065,1.03122 -2.22029,1.87494 -2.42144,1.87494 -0.28878,0 -0.3851,-0.75643 -0.45783,-3.59547 -0.0872,-3.40465 -0.12525,-3.6223 -0.71672,-4.10104 -1.04667,-0.84718 -1.57279,-0.62444 -3.84128,1.62618 -2.57852,2.55821 -5.00246,4.22902 -7.92061,5.45963 -2.71444,1.1447 -3.09162,1.48061 -3.09162,2.75337 0,1.30331 0.71621,1.82557 2.50627,1.82755 2.15785,0.002 3.21336,0.40899 3.61736,1.39344 0.54954,1.3391 0.66727,33.654277 0.12732,34.946547 -0.51154,1.2243 -1.34098,1.72448 -3.37485,2.03513 -2.52334,0.3854 -2.843,0.48406 -3.41199,1.05306 -0.74189,0.74188 -0.67129,1.98513 0.15993,2.81635 l 0.68237,0.68237 4.80773,-0.22711 c 2.64426,-0.12491 5.40305,-0.22657 6.13065,-0.22592 z"
       id="path1445" />
    <path
       style="fill:#454f59;fill-opacity:1;stroke:#454f59;stroke-width:0.264583;stroke-opacity:1"
       d="m 749.05177,122.09162 c 3.6031,-0.74586 8.2924,-4.01642 9.6048,-6.69877 0.7867,-1.60801 0.7233,-2.30951 -0.2675,-2.95872 -0.7555,-0.49501 -1.2159,-0.29735 -3.1727,1.36204 -2.0287,1.72037 -3.4525,2.36798 -5.2061,2.36798 -1.6837,0 -2.578,-0.49279 -3.5885,-1.97758 -1.5614,-2.29394 -1.6771,-4.0492 -1.5963,-24.216167 l 0.072,-17.99166 5.9109,-0.13229 c 5.8182,-0.13022 5.9188,-0.14209 6.4162,-0.75692 0.6875,-0.84995 0.6875,-2.92789 0,-3.77784 -0.4974,-0.61483 -0.598,-0.62669 -6.4162,-0.75691 l -5.9109,-0.13229 -0.1515,-5.42396 c -0.083,-2.98318 -0.1727,-5.44522 -0.1985,-5.47121 -0.7209,-0.72706 -0.9756,-0.87879 -1.4748,-0.87879 -0.8101,0 -1.5001,0.82327 -2.6609,3.175 -1.7916,3.6296 -3.9065,6.01884 -8.2786,9.35215 -1.7855,1.36127 -2.1846,1.89366 -2.1846,2.91438 0,1.22362 1.0943,1.75639 3.6076,1.75639 h 2.2132 v 18.98385 c 0,20.234827 0.097,22.073217 1.3056,25.254907 1.7246,4.54004 6.7885,7.08002 11.9748,6.00641 z"
       id="path1441" />
    <path
       style="fill:#454f59;fill-opacity:1;stroke:#454f59;stroke-width:0.264583;stroke-opacity:1"
       d="m 679.94237,121.58512 c 6.6601,-1.62139 12.0695,-6.14936 14.0382,-11.75076 1.666,-4.74017 1.0538,-10.156947 -1.593,-14.094417 -2.0955,-3.1173 -5.2897,-5.08491 -13.4473,-8.28333 -6.8058,-2.6684 -9.3347,-4.53659 -10.1327,-7.48535 -0.4813,-1.77873 -0.1659,-4.23933 0.729,-5.68679 1.7105,-2.76671 5.3713,-4.49502 8.9172,-4.20997 2.9397,0.23632 4.2939,0.82863 6.1208,2.67719 1.3383,1.35412 1.7923,2.07997 2.8728,4.59282 1.0246,2.38274 1.4392,3.06511 2.0562,3.3842 0.6497,0.33595 0.8877,0.34473 1.4929,0.0551 1.1361,-0.5438 1.3594,-1.6648 1.2656,-6.35401 -0.1088,-5.44683 -0.2885,-5.74368 -4.1176,-6.80386 -4.8316,-1.33775 -10.4298,-1.59229 -14.5038,-0.65945 -8.3748,1.91763 -14.1254,9.23509 -13.0597,16.61806 0.8836,6.12105 4.4762,9.38097 14.4666,13.12678 4.8505,1.81866 6.6907,2.70035 8.3143,3.983707 4.0425,3.19547 4.4869,9.79532 0.925,13.73797 -2.7748,3.07134 -6.9947,4.52683 -11.4885,3.96256 -2.641,-0.3316 -4.2727,-1.11732 -5.8072,-2.79632 -1.5254,-1.6691 -2.1945,-3.27972 -3.0735,-7.39861 -0.3446,-1.61504 -0.7575,-3.28192 -0.9175,-3.70417 -0.9159,-2.41696 -3.1334,-2.63605 -4.0075,-0.39593 -0.3341,0.85624 -0.8237,10.34564 -0.6112,11.84657 0.086,0.60823 0.4118,1.43034 0.7237,1.82693 0.9993,1.27036 6.3209,3.35065 10.3862,4.06006 0.8731,0.15237 1.8851,0.32989 2.249,0.3945 1.3886,0.24661 6.0472,-0.11887 8.202,-0.64346 z"
       id="path1437" />
    <path
       id="path1429"
       style="fill:#454f59;fill-opacity:1;stroke:#454f59;stroke-width:0.264583;stroke-opacity:1"
       d="m 591.05074,66.388929 c -1.93043,0.03453 -3.91062,0.311362 -5.97485,0.829945 -5.13048,1.288891 -9.36427,3.732901 -13.22657,7.635187 -4.88591,4.936437 -7.06986,10.185347 -7.44607,17.894512 -0.39679,8.130987 2.03478,15.535987 7.03059,21.410587 3.35529,3.94539 9.10265,7.12824 14.40016,7.9747 2.22761,0.35592 7.47038,0.0734 9.83866,-0.5302 5.09381,-1.29826 10.50827,-4.97753 13.79038,-9.37101 1.2532,-1.67754 1.50839,-2.95643 0.7426,-3.72224 -0.9032,-0.90329 -1.76003,-0.53001 -4.45193,1.94043 -4.0318,3.70004 -7.31147,5.03999 -12.35376,5.04777 -9.5862,0.0148 -16.59102,-6.56915 -18.91202,-17.776691 -0.57531,-2.77831 -0.66241,-7.613597 -0.14833,-8.237246 0.33211,-0.402775 1.86346,-0.440267 17.91105,-0.440267 h 17.54777 l 0.74208,-0.640265 c 0.70789,-0.610711 0.7412,-0.74258 0.7152,-2.844271 -0.035,-2.845541 -0.85784,-6.016281 -2.37453,-9.152414 -2.03931,-4.216796 -5.86611,-7.46035 -10.55802,-8.948287 -2.39056,-0.758137 -4.79044,-1.11461 -7.27241,-1.07024 z m -0.83767,4.477253 c 2.02226,-0.02013 3.98864,0.41185 5.67663,1.311539 2.765,1.47373 4.51207,4.336865 4.53308,7.430056 0.0114,1.65436 -0.0497,1.862137 -0.71935,2.438612 -0.84619,0.728556 -2.02231,1.08532 -4.73821,1.438671 -2.11659,0.275352 -17.62908,0.575019 -18.80558,0.363273 -0.40018,-0.07199 -0.7276,-0.236616 -0.7276,-0.365865 0,-0.526601 1.27968,-3.711046 1.95336,-4.860687 0.99111,-1.691243 3.61556,-4.442222 5.22037,-5.472007 2.31423,-1.485053 5.00724,-2.257689 7.6073,-2.283592 z" />
    <path
       style="fill:#454f59;fill-opacity:1;stroke:#454f59;stroke-width:0.264583;stroke-opacity:1"
       d="m 535.13937,121.78655 c 0.3,-0.32742 0.7825,-1.07156 1.0723,-1.65365 0.4071,-0.81786 12.6531,-30.241577 17.3236,-41.623847 1.0353,-2.52315 2.6732,-4.95295 3.8736,-5.7465 0.5266,-0.34811 1.7668,-0.80234 2.7559,-1.00941 2.3166,-0.48496 2.9302,-1.01518 2.7479,-2.37448 -0.075,-0.55852 -0.2155,-1.09496 -0.3125,-1.19209 -0.097,-0.0971 -4.2751,-0.2108 -9.2848,-0.25262 l -9.1085,-0.0761 -0.6593,0.65933 c -1.6357,1.63572 0.016,3.32354 3.2564,3.32774 1.4152,0.002 2.643,0.61389 2.9731,1.48205 0.5122,1.34716 0.073,2.60029 -6.827,19.48128 -3.9601,9.688647 -5.6021,13.423007 -5.9039,13.427607 -0.5814,0.009 -11.3569,-29.370677 -11.5456,-31.479047 -0.1176,-1.31335 -0.063,-1.51783 0.56,-2.09765 0.5715,-0.53196 1.0589,-0.66953 2.8341,-0.79997 1.937,-0.14233 2.2068,-0.23072 2.7964,-0.91615 0.7536,-0.87612 0.6713,-1.84778 -0.2205,-2.60237 -0.502,-0.42477 -1.4557,-0.46302 -11.5434,-0.46302 -12.0968,0 -11.9639,-0.0179 -11.9639,1.60686 0,1.63919 0.5437,2.05196 3.1242,2.37199 1.7655,0.21896 2.6779,0.69787 3.5401,1.85833 0.2637,0.35481 4.174,10.58683 8.6896,22.73781 4.5156,12.150987 8.5244,22.842207 8.9083,23.758247 0.9441,2.2525 1.8466,2.7405 2.9139,1.57561 z"
       id="path1425" />
    <path
       style="fill:#454f59;fill-opacity:1;stroke:#454f59;stroke-width:0.264583;stroke-opacity:1"
       d="m 390.4882,121.61107 c 6.5103,-1.31096 11.2211,-4.12555 14.42893,-8.62092 1.35006,-1.89193 2.07031,-3.46559 2.84625,-6.21871 0.54595,-1.93706 0.56302,-2.58366 0.71611,-27.119787 0.17252,-27.65133 0.10897,-26.66333 1.78856,-27.80652 0.58389,-0.39741 1.4192,-0.60106 2.94941,-0.71906 1.17415,-0.0905 2.49864,-0.35276 2.94331,-0.58271 1.39282,-0.72026 1.62468,-2.4368 0.47026,-3.48154 -0.49491,-0.44789 -1.26346,-0.48372 -10.89027,-0.50777 -6.4934,-0.0162 -10.5552,0.0737 -10.88694,0.24106 -1.54692,0.78035 -1.6142,3.09157 -0.11337,3.89479 0.29477,0.15776 1.78296,0.38665 3.30707,0.50864 3.01726,0.2415 3.77912,0.55734 4.59985,1.90693 1.14999,1.89099 1.20228,3.08025 1.20228,27.33993 0,25.271877 0.0231,24.865017 -1.61242,28.352057 -1.06691,2.27467 -4.16653,5.26446 -6.74531,6.50631 -3.72719,1.79489 -5.77056,2.1833 -11.48601,2.1833 -3.88234,0 -5.38859,-0.10048 -6.61459,-0.44127 -5.86278,-1.62965 -9.10152,-4.12105 -10.46324,-8.04887 -1.2482,-3.60038 -1.30749,-4.99879 -1.30916,-30.875127 -10e-4,-20.08744 0.0617,-24.4355 0.3647,-25.16058 0.4703,-1.1256 1.96269,-1.75001 4.20316,-1.75859 3.32966,-0.0128 4.79683,-0.77561 4.79683,-2.49411 0,-0.61683 -0.21581,-1.15481 -0.64823,-1.61588 l -0.64822,-0.69119 -8.33438,0.16324 c -4.58391,0.0898 -10.20568,0.0701 -12.49283,-0.0436 -2.28716,-0.11378 -4.54648,-0.12713 -5.02072,-0.0296 -1.09325,0.22473 -1.80103,1.09088 -1.80103,2.204 0,1.77062 1.33608,2.45765 4.89479,2.51696 2.21705,0.0369 3.30485,0.47256 3.95568,1.58409 0.53396,0.9119 0.54443,1.32584 0.68622,27.11979 0.15521,28.234807 0.0776,26.680497 1.52167,30.480947 1.05523,2.77714 3.34069,5.3748 6.61354,7.51696 3.23337,2.11632 8.00533,3.62262 13.28435,4.19329 3.3732,0.36464 10.52426,0.10159 13.49375,-0.49637 z"
       id="path1421" />
    <path
       style="fill:#454f59;fill-opacity:1;stroke:#454f59;stroke-width:0.264583;stroke-opacity:1"
       d="m 781.01957,146.82243 c 1.1713,-0.46867 1.6794,-1.23906 2.5082,-3.80307 0.6739,-2.08472 22.0955,-58.351197 23.4104,-61.490247 3.2022,-7.64473 4.6036,-9.29619 8.3386,-9.82691 1.9103,-0.27144 2.249,-0.51191 2.249,-1.59688 0,-0.63331 -0.2066,-1.13535 -0.6495,-1.57819 l -0.6494,-0.64943 h -9.2136 c -10.0342,0 -10.1047,0.01 -10.6776,1.51685 -0.5817,1.52999 0.6831,2.44743 3.3883,2.45771 1.7779,0.007 3.5823,0.72007 4.0548,1.60292 0.7845,1.46591 0.2399,3.2326 -5.7847,18.76418 -4.5713,11.784677 -5.8959,14.948957 -6.2578,14.948957 -0.3643,0 -1.638,-3.1426 -6.1663,-15.213537 -6.0939,-16.24443 -6.5034,-17.65768 -5.4521,-18.81935 0.7789,-0.86069 1.3083,-1.04496 3.7153,-1.29329 1.2421,-0.12816 2.5445,-0.42049 2.8942,-0.64962 0.8625,-0.56512 0.8525,-1.79937 -0.022,-2.67357 l -0.6576,-0.6576 -11.404,0.0743 -11.404,0.0743 -0.6384,0.74235 c -1.4226,1.65436 -0.5081,2.75988 2.5618,3.09686 1.599,0.17553 2.0031,0.32877 2.7333,1.03651 0.4713,0.45678 1.1717,1.51115 1.5565,2.34302 0.919,1.98684 16.4461,42.977167 16.8426,44.463287 0.1683,0.63064 0.2248,1.51624 0.1256,1.968 -0.1695,0.77186 -4.707,12.72413 -5.415,14.26385 -0.4445,0.96664 -1.2615,1.21891 -4.3588,1.34597 -3.2292,0.13247 -4.193,0.55042 -4.9097,2.12905 -1.0183,2.24282 -0.5138,6.05474 0.9093,6.87077 1.8664,1.07019 6.3409,1.36561 8.3723,0.55277 z"
       id="path1417" />
    <path
       style="fill:#fab83a;fill-opacity:1;stroke:#454f59;stroke-width:0.264583;stroke-opacity:1"
       d="m 985.47417,88.271233 -0.8641,-0.77314 v -2.91791 c 0,-1.79234 0.1138,-3.03161 0.2949,-3.21267 0.2167,-0.21662 1.1534,-0.21578 3.5335,0.003 1.7813,0.16388 3.2863,0.2503 3.3446,0.19204 0.058,-0.0582 -0.1626,-0.60265 -0.4908,-1.20979 l -0.5968,-1.10388 3.5719,-3.41663 3.5719,-3.41663 -0.8599,-0.31056 c -1.0229,-0.36945 -1.0541,-0.66697 -0.3526,-3.36766 0.2741,-1.05502 0.4208,-1.91404 0.3262,-1.90893 -0.095,0.005 -0.9459,0.17952 -1.8918,0.38758 -2.5211,0.55453 -2.5815,0.54071 -2.9452,-0.673 l -0.3205,-1.06988 -1.2205,1.20217 c -1.4186,1.39724 -1.9717,1.54584 -1.7664,0.47456 0.077,-0.40018 0.2101,-1.62057 0.2965,-2.71197 0.086,-1.09141 0.2258,-2.45218 0.3097,-3.02394 l 0.1526,-1.03956 -1.1372,0.97341 c -0.6254,0.53538 -1.2863,0.97342 -1.4685,0.97342 -0.1822,0 -0.9645,-1.18999 -1.7383,-2.64443 -0.7739,-1.45443 -1.4694,-2.64506 -1.5457,-2.64583 -0.076,-7.9e-4 -0.7027,1.13393 -1.3921,2.52157 -0.6893,1.38764 -1.4318,2.59151 -1.6501,2.67528 -0.233,0.0894 -0.8999,-0.25985 -1.615,-0.84587 l -1.2182,-0.99816 0.1518,1.03486 c 0.084,0.56918 0.2212,1.80878 0.306,2.75466 0.085,0.94589 0.2193,2.16628 0.2988,2.71198 0.1999,1.37138 -0.3389,1.30608 -1.7368,-0.21048 l -1.1086,-1.20267 -0.4205,1.07038 c -0.4721,1.20189 -0.5805,1.22768 -2.8537,0.67879 -0.8731,-0.21082 -1.7251,-0.38756 -1.8932,-0.39274 -0.2052,-0.006 -0.098,0.74484 0.3255,2.28486 0.6631,2.41029 0.5782,2.99738 -0.4335,2.99738 -0.2646,0 -0.5476,0.10759 -0.6289,0.2391 -0.081,0.1315 1.4,1.69537 3.2917,3.47527 1.8917,1.77989 3.4394,3.41009 3.4394,3.62266 0,0.21257 -0.2511,0.73915 -0.558,1.17017 -0.3069,0.43103 -0.498,0.8437 -0.4246,0.91706 0.073,0.0733 1.5907,-8e-4 3.372,-0.16459 2.2156,-0.20383 3.3244,-0.21212 3.5103,-0.0262 0.1495,0.14943 0.3274,1.52278 0.3954,3.05189 l 0.1236,2.78019 -0.9339,0.93391 -0.9339,0.9339 h 2.6235 2.6236 z"
       id="path1413" />
    <path
       style="fill:#fab83a;fill-opacity:1;stroke:#454f59;stroke-width:0.264583;stroke-opacity:1"
       d="m 878.16377,88.295883 c -0.9522,-0.88948 -1.2416,-2.12239 -1.0126,-4.31355 0.3144,-3.00806 0.2715,-2.95198 2.1241,-2.7745 0.89,0.0853 2.4972,0.23343 3.5715,0.32926 l 1.9534,0.17423 -0.6966,-1.0251 c -0.3831,-0.56381 -0.6934,-1.1463 -0.6896,-1.29442 0,-0.14812 1.5996,-1.75759 3.546,-3.5766 l 3.539,-3.3073 -0.9002,-0.36663 c -1.0465,-0.42625 -1.0624,-0.56081 -0.3784,-3.19516 0.282,-1.08586 0.4735,-2.01343 0.4257,-2.06127 -0.048,-0.0478 -0.9407,0.10719 -1.984,0.3445 -1.0434,0.23731 -2.0638,0.3675 -2.2675,0.28932 -0.2038,-0.0782 -0.5135,-0.61948 -0.6883,-1.20288 l -0.3178,-1.06073 -1.0667,1.31132 c -1.8196,2.23691 -1.9992,1.88045 -1.476,-2.92941 0.16,-1.4707 0.2379,-2.72706 0.173,-2.79192 -0.065,-0.0649 -0.5693,0.2408 -1.121,0.67924 -0.5517,0.43844 -1.1643,0.79717 -1.3613,0.79717 -0.197,0 -1.0001,-1.27965 -1.7847,-2.84365 l -1.4265,-2.84365 -1.4143,2.84365 c -0.7778,1.564 -1.5754,2.84365 -1.7724,2.84365 -0.197,0 -0.8594,-0.41076 -1.4721,-0.91279 l -1.1139,-0.91279 0.3264,3.0956 c 0.429,4.06827 0.4278,4.28623 -0.022,4.28623 -0.2085,0 -0.8316,-0.5522 -1.3847,-1.22711 l -1.0055,-1.2271 -0.4774,1.09481 c -0.5395,1.23707 -0.6458,1.26087 -3.0753,0.68817 -0.9306,-0.21934 -1.7403,-0.35043 -1.7994,-0.29131 -0.059,0.0591 0.1367,1.06386 0.4351,2.23275 0.2984,1.16888 0.5426,2.245 0.5426,2.39137 0,0.14637 -0.4332,0.40909 -0.9626,0.58382 l -0.9626,0.31769 3.4761,3.29665 c 1.9119,1.81316 3.4762,3.48108 3.4762,3.70649 0,0.22542 -0.2576,0.82667 -0.5725,1.33612 l -0.5724,0.92626 2.0938,-0.1765 c 1.1516,-0.0971 2.7167,-0.2454 3.4781,-0.32961 1.3345,-0.14761 1.3945,-0.12614 1.6697,0.59788 0.1571,0.41304 0.3028,1.70641 0.3238,2.87415 0.04,2.227 -0.2177,3.03993 -1.2338,3.88935 -0.5385,0.45011 -0.472,0.46546 2.0512,0.47398 l 2.6076,0.009 -0.8012,-0.74848 z"
       id="path1409" />
    <path
       style="fill:#fab83a;fill-opacity:1;stroke:#454f59;stroke-width:0.264583;stroke-opacity:1"
       d="m 954.05077,72.548233 v -13.32112 l -4.4328,-0.14996 c -4.2336,-0.14323 -4.5693,-0.19539 -7.4744,-1.16141 -2.7067,-0.90004 -3.3332,-1.01183 -5.6876,-1.01485 -2.04,-0.003 -2.8428,0.10418 -3.5058,0.46641 l -0.8599,0.46982 v 12.29633 12.29633 h 1.8385 c 1.9301,0 4.3943,0.65239 8.2157,2.17513 2.6085,1.0394 3.6432,1.19625 8.1359,1.23333 l 3.7704,0.0311 z"
       id="path1405" />
    <path
       style="fill:#fab83a;fill-opacity:1;stroke:#454f59;stroke-width:0.264583;stroke-opacity:1"
       d="m 919.65487,84.361473 c 4.3931,-1.62421 5.612,-1.93169 7.6578,-1.93169 h 1.6026 v -12.318 -12.31801 l -1.2393,-0.54821 c -1.7828,-0.78864 -4.9239,-0.57919 -8.1981,0.54665 -2.882,0.99104 -5.2539,1.33501 -9.2818,1.34606 l -2.9766,0.008 v 13.39529 13.3953 l 4.4318,-0.12748 4.4317,-0.12749 z"
       id="path1403" />
    <path
       id="path1389"
       style="fill:#730030;fill-opacity:1;stroke:#454f59;stroke-width:0.264583;stroke-opacity:1"
       d="m 938.25021,102.55882 -1.00047,0.0212 0.79375,0.27803 c 1.18131,0.41404 1.75546,1.01978 1.66606,1.75699 -0.1197,0.98761 -1.17422,1.57787 -3.65043,2.0438 -2.82948,0.53239 -4.31935,0.27551 -7.00524,-1.20716 -2.3359,-1.28945 -3.1083,-1.33734 -4.11811,-0.2563 -0.6776,0.72535 -1.06146,0.85709 -3.87625,1.32754 -3.7736,0.63074 -5.78464,1.18698 -6.73394,1.86296 -0.8741,0.62241 -1.81438,2.49809 -1.81438,3.61939 0,0.80341 0.73295,2.70373 1.04283,2.70373 0.083,0 0.30835,-0.35587 0.50075,-0.79066 0.96671,-2.18395 3.92306,-2.65649 6.83525,-1.09296 3.01781,1.62023 6.08377,4.46032 5.47356,5.0705 -0.1724,0.17243 -2.58323,0.28726 -6.46834,0.3085 -7.2562,0.0397 -7.68911,-0.0605 -8.96792,-2.07687 l -0.79738,-1.2578 v 1.09296 c 0,1.53832 0.38055,2.36464 1.38234,2.99982 0.8323,0.52772 1.15367,0.54587 8.14266,0.46302 l 7.27604,-0.0863 -0.046,0.92241 c -0.031,0.6308 -0.26609,1.11152 -0.74258,1.52136 -0.67072,0.5769 -0.8826,0.59894 -5.7087,0.59894 -4.65029,0 -5.01261,0.0346 -5.01261,0.47646 0,0.26193 0.14319,0.61912 0.31779,0.79375 0.3942,0.39423 2.38278,0.40957 3.75377,0.0289 2.05592,-0.57084 3.37482,0.14724 3.75431,2.04485 0.2223,1.11133 -0.6908,2.10958 -2.5368,2.77244 l -1.45262,0.52142 1.5875,-0.17055 c 2.96709,-0.31893 5.40121,-1.62777 6.3686,-3.42408 0.27451,-0.50967 0.62228,-0.92655 0.77309,-0.92655 0.15079,0 0.58973,0.71438 0.97565,1.5875 0.52218,1.18168 0.83794,1.5875 1.23402,1.5875 0.7593,0 1.53858,-1.11977 1.74717,-2.51044 0.22371,-1.49186 0.64104,-1.52157 1.61595,-0.11473 1.60959,2.32265 4.15909,4.1143 6.94787,4.88239 1.81351,0.49948 1.82248,0.48667 0.48938,-0.68678 v -5.1e-4 c -2.4379,-2.14601 -4.0595,-6.67295 -4.3253,-12.0742 -0.20852,-4.23609 0.085,-5.34184 1.84689,-6.95823 3.56841,-3.2735 3.36156,-3.0026 3.36156,-4.40801 0,-0.76917 -0.17529,-1.54517 -0.43148,-1.91098 -0.55272,-0.78901 -1.92178,-1.3599 -3.19826,-1.33326 z m -9.60768,4.80332 0.26715,0.96118 c 0.38002,1.3679 0.33941,1.62317 -0.2589,1.62317 -0.34009,0 -0.52916,0.1764 -0.52916,0.4935 0,0.27144 -0.24667,0.80722 -0.54827,1.19062 -0.3016,0.38344 -0.75134,0.69713 -0.99944,0.69713 -0.69789,0 -1.58234,-0.73443 -1.67534,-1.39166 -0.074,-0.52112 -0.27665,-0.60875 -1.67174,-0.72501 l -1.5875,-0.13229 3.5016,-1.35858 z" />
    <path
       style="fill:#730030;fill-opacity:1;stroke:#454f59;stroke-width:0.264583;stroke-opacity:1"
       d="m 960.00257,166.47041 c 0.7942,-1.59382 0.8696,-3.49673 0.229,-5.77996 -0.2386,-0.85026 -0.3573,-1.6224 -0.2638,-1.71587 0.093,-0.0935 0.7351,0.0926 1.4259,0.41357 2.2844,1.06131 6.1575,1.27454 6.145,0.33832 -0.013,-0.96208 -1.1287,-2.80936 -2.6609,-4.40497 -0.8902,-0.927 -1.551,-1.79467 -1.4685,-1.92816 0.082,-0.13349 0.8551,-0.31641 1.7169,-0.40648 1.6125,-0.16854 4.0571,-0.96075 4.9265,-1.59652 0.4639,-0.33918 0.4198,-0.43735 -0.7653,-1.70437 -0.6917,-0.73945 -1.9066,-1.84517 -2.6999,-2.45716 -0.7932,-0.61198 -1.4004,-1.23818 -1.3493,-1.39155 0.051,-0.15338 0.6674,-0.4254 1.3695,-0.6045 1.4041,-0.35819 4.1443,-1.65964 5.1519,-2.44688 l 0.6433,-0.50255 -0.9079,-0.84255 c -0.4993,-0.4634 -1.8901,-1.44729 -3.0906,-2.18644 -1.2005,-0.73914 -2.1828,-1.45681 -2.1828,-1.59483 0,-0.13802 0.5528,-0.86375 1.2285,-1.61273 0.6757,-0.74899 1.6536,-1.99969 2.1731,-2.77933 0.9179,-1.37774 0.93,-1.42812 0.4297,-1.79397 -0.7117,-0.52042 -2.745,-1.09474 -4.6312,-1.30814 -1.799,-0.20353 -1.9029,-0.40698 -0.9359,-1.83197 1.8555,-2.73415 1.44,-8.04243 -1.0988,-14.04003 l -1.0001,-2.36252 -0.1896,2.82756 c -0.2458,3.66345 -0.7915,5.95335 -1.9392,8.13739 -1.1917,2.2678 -2.9546,3.98607 -6.7296,6.55914 -3.9722,2.7075 -4.6404,3.68862 -4.6299,6.79802 0.01,2.42552 0.605,3.93736 1.8958,4.80189 1.1238,0.7527 3.4901,0.64292 5.6376,-0.26153 2.7542,-1.15999 2.5657,-1.19746 2.7628,0.54907 0.1968,1.74348 -0.1554,4.63785 -0.7898,6.49097 -0.5532,1.61589 -2.2093,3.47806 -3.5814,4.02708 -0.8607,0.34436 -1.0472,0.53035 -0.8927,0.89035 0.1073,0.25028 0.2272,3.1935 0.2664,6.54048 0.039,3.34698 0.1881,6.38307 0.3311,6.74687 0.3297,0.83897 1.2158,1.6433 2.5651,2.32847 l 1.0583,0.53742 0.594,-0.55182 c 0.3267,-0.3035 0.8923,-1.1503 1.2568,-1.88177 z"
       id="path1385" />
    <path
       style="fill:#730030;fill-opacity:1;stroke:#454f59;stroke-width:0.264583;stroke-opacity:1"
       d="m 905.59897,166.94608 c 0.767,-0.97517 0.8313,-1.57371 0.9168,-8.53455 l 0.076,-6.17137 -0.9608,-0.4902 c -1.3943,-0.71127 -2.7584,-2.3493 -3.4412,-4.13192 -0.4791,-1.2507 -0.6021,-2.13516 -0.6273,-4.50816 -0.017,-1.62371 0.055,-3.04006 0.1616,-3.14745 0.1062,-0.1074 0.9082,0.1257 1.7823,0.518 0.8742,0.3923 2.2418,0.85011 3.0392,1.01736 2.9592,0.6207 4.9303,-1.06771 5.3278,-4.56385 0.3587,-3.15405 -0.7764,-4.84539 -5.2577,-7.83408 -1.4868,-0.99159 -3.3186,-2.42786 -4.0706,-3.19172 -2.4742,-2.513 -3.7501,-6.01815 -4.0284,-11.0669 l -0.1605,-2.91042 -0.8651,1.93221 c -1.6859,3.76548 -2.2726,6.21665 -2.2922,9.57716 -0.017,2.96009 0.01,3.08392 0.8422,4.56006 0.4729,0.83454 0.8599,1.62283 0.8599,1.75176 0,0.12893 -0.7248,0.31642 -1.6107,0.41664 -1.7259,0.19527 -4.8965,1.08577 -5.113,1.43607 -0.184,0.29773 1.3844,2.56371 2.9917,4.32233 0.7429,0.81288 1.3507,1.59403 1.3507,1.73589 0,0.14185 -0.9227,0.80307 -2.0505,1.46938 -1.1278,0.6663 -2.5268,1.63425 -3.1088,2.15099 l -1.0584,0.93954 0.6607,0.55972 c 0.9719,0.82344 3.5204,2.05248 5.0874,2.45351 0.7532,0.19276 1.4093,0.46982 1.4579,0.61568 0.049,0.14586 -0.5408,0.74408 -1.3098,1.32936 -1.5666,1.19226 -3.3058,2.88075 -3.6768,3.56935 -0.2004,0.37204 -0.039,0.56042 0.8844,1.03254 1.4238,0.7279 3.4806,1.28331 4.7676,1.28738 1.3751,0.004 1.2939,0.53708 -0.3356,2.20112 -1.3144,1.34234 -2.641,3.57292 -2.641,4.44076 0,0.93054 3.8007,0.75326 5.9279,-0.27651 1.1676,-0.56522 1.747,-0.67929 1.7422,-0.34296 0,0.10914 -0.1802,0.78291 -0.3969,1.49726 -0.4937,1.6273 -0.5088,4.39665 -0.03,5.54193 0.2001,0.47886 0.7456,1.30553 1.2123,1.83708 l 0.8485,0.96641 1.2752,-0.64616 c 0.7013,-0.35539 1.5219,-0.95986 1.8234,-1.34324 z"
       id="path1381" />
    <path
       style="fill:#730030;fill-opacity:1;stroke:#454f59;stroke-width:0.264583;stroke-opacity:1"
       d="m 973.07817,192.389 c -4.8398,-2.01174 -8.4275,-5.84163 -10.3137,-11.0099 -1.3153,-3.60397 -0.9558,-4.0527 1.3495,-1.68444 2.439,2.50576 6.8786,6.21212 9.3745,7.82624 3.3174,2.14532 5.8393,3.14693 8.3585,3.3196 2.8225,0.19346 4.3794,-0.53242 7.1305,-3.32449 2.2871,-2.32117 5.1235,-6.2797 4.3233,-6.0338 -1.432,0.44006 -4.693,0.73911 -6.4611,0.59251 -6.015,-0.49885 -10.844,-3.36066 -13.8741,-8.22222 -1.8548,-2.97587 -1.6127,-3.18468 1.4316,-1.23476 2.9953,1.91855 5.5664,3.13614 8.2444,3.90433 3.105,0.89066 6.9588,0.82965 9.1723,-0.14523 1.5842,-0.69766 3.1423,-2.26156 3.9741,-3.98873 0.5921,-1.22949 1.4647,-4.24661 1.2813,-4.4301 -0.057,-0.0571 -0.7325,0.0829 -1.5009,0.31107 -3.0979,0.91995 -7.7443,0.30742 -11.7672,-1.55131 -3.657,-1.68963 -9.1129,-5.92255 -9.1129,-7.07015 0,-0.45296 0.1155,-0.48845 0.9921,-0.30481 0.5457,0.11431 3.1949,0.19583 5.887,0.18115 4.3483,-0.0237 5.1781,-0.10176 7.4319,-0.69897 4.3922,-1.16387 6.8294,-2.79862 8.4842,-5.69094 0.9027,-1.57779 3.95723,-8.85044 3.78823,-9.01949 -0.057,-0.0566 -0.7331,0.31325 -1.50313,0.82197 -3.0746,2.03117 -7.2227,3.60544 -11.4193,4.33385 -4.3286,0.7513 -11.2798,0.0616 -11.2798,-1.11915 0,-0.25326 1.0114,-0.87744 2.712,-1.6737 5.2205,-2.44439 14.9408,-7.36315 16.4173,-8.30767 2.453,-1.56913 3.5186,-2.81498 4.15573,-4.85855 0.6652,-2.13396 1.3088,-6.62379 1.3161,-9.18076 l 0.01,-1.82319 -1.0962,1.24539 c -3.32623,3.77871 -12.35143,7.85662 -22.25333,10.05475 -1.491,0.33101 -0.7016,-0.63002 2.249,-2.73769 9.7373,-6.95569 15.5033,-12.36644 17.2462,-16.1837 0.3597,-0.78781 0.7324,-2.20628 0.8282,-3.15217 0.1718,-1.69703 -0.2828,-8.86529 -0.6493,-10.23544 -0.1882,-0.70401 -0.19,-0.70309 -0.8757,0.46554 -2.463,4.19745 -11.0021,10.78977 -22.2478,17.17571 l -4.4219,2.51101 v 2.1637 c 0,1.19004 -0.06,2.32227 -0.1336,2.51607 -0.086,0.22726 0.4737,0.66595 1.5767,1.23553 0.9406,0.48573 2.2546,1.36236 2.92,1.94807 1.4186,1.24865 1.4324,1.08476 -0.4095,4.85329 l -1.2989,2.65742 2.0981,2.13505 c 1.1539,1.17427 2.1775,2.45128 2.2745,2.83781 0.2688,1.0709 -0.3299,2.16602 -2.192,4.00991 l -1.6928,1.67625 1.2068,2.0617 c 0.6638,1.13393 1.2069,2.29364 1.2069,2.57713 0,0.60408 -1.1166,1.62846 -3.2411,2.97338 -0.8368,0.5297 -1.5214,1.10979 -1.5214,1.28909 0,0.1793 0.1638,0.79015 0.3639,1.35745 0.2002,0.56729 0.4495,1.76824 0.554,2.66877 0.1821,1.56958 0.1589,1.66627 -0.5624,2.33704 -1.1242,1.04555 -3.6688,2.24133 -5.1404,2.41561 -0.966,0.11441 -1.3005,0.26559 -1.3005,0.58767 0,1.2061 -1.9458,4.41222 -3.8907,6.41077 -1.112,1.14274 -2.1501,2.07587 -2.3067,2.07362 -0.5611,-0.008 -4.9817,-2.10052 -5.8715,-2.77921 l -0.9076,-0.69231 -0.392,1.01021 c -0.4224,1.08852 -0.727,1.7046 -1.7131,3.46432 l -0.6338,1.13123 0.5042,1.48352 c 0.6169,1.81483 2.3455,4.66185 4.0219,6.62411 4.1541,4.86238 12.1788,8.4588 18.9945,8.51273 l 1.5875,0.0127 -1.4777,-0.61426 z"
       id="path1377" />
    <path
       style="fill:#730030;fill-opacity:1;stroke:#454f59;stroke-width:0.264583;stroke-opacity:1"
       d="m 891.24367,192.62191 c 8.9676,-1.54072 15.4432,-6.19585 19.03,-13.68026 0.503,-1.04962 0.9146,-2.10693 0.9146,-2.34955 0,-0.24262 -0.4763,-1.25613 -1.0584,-2.25221 -0.5821,-0.9961 -1.0583,-1.89452 -1.0583,-1.99649 0,-0.102 -0.1155,-0.48922 -0.2567,-0.86051 l -0.2566,-0.67506 -1.2046,0.81291 c -1.1331,0.76478 -5.1071,2.6225 -5.5979,2.61689 -0.4124,-0.005 -3.7581,-3.38656 -4.4958,-4.54425 -0.4001,-0.62793 -0.9884,-1.8561 -1.3074,-2.72923 -0.5713,-1.56382 -0.5977,-1.59006 -1.7684,-1.75942 -1.4657,-0.21209 -3.1455,-0.95491 -4.6256,-2.04554 -0.9833,-0.72453 -1.1245,-0.95592 -1.1245,-1.84292 0,-0.55789 0.2383,-1.94604 0.5295,-3.08478 0.2913,-1.13874 0.4996,-2.08547 0.4631,-2.10385 -1.5599,-0.78369 -4.9614,-3.49163 -4.9614,-3.94971 0,-0.17443 0.6113,-1.31032 1.3583,-2.52419 l 1.3582,-2.20705 -1.3316,-1.22148 c -1.725,-1.58238 -2.7078,-2.95666 -2.7078,-3.78644 0,-0.85908 1.2688,-2.6484 3.0593,-4.3142 l 1.4219,-1.32292 -1.4469,-2.90271 c -0.7957,-1.59649 -1.4468,-3.04578 -1.4468,-3.22063 0,-0.52445 2.5791,-2.61539 4.2068,-3.41059 l 1.5207,-0.7429 -0.2153,-1.34388 c -0.1185,-0.73913 -0.148,-1.87965 -0.065,-2.5345 l 0.1498,-1.19062 -2.5998,-1.43623 c -11.9692,-6.6123 -21.1531,-13.47751 -23.829,-17.81267 -0.6342,-1.02758 -1.0198,-1.43466 -1.1417,-1.20548 -0.2685,0.50477 -0.7801,6.41406 -0.7801,9.01071 0,4.18292 1.0277,6.07758 5.9203,10.9145 3.2732,3.23588 6.9473,6.22371 12.2698,9.97795 1.6371,1.15474 2.9766,2.26936 2.9766,2.47694 0,0.48128 0.2202,0.50762 -3.4027,-0.40703 -8.5196,-2.15086 -16.2314,-5.82005 -19.4383,-9.24848 l -1.2361,-1.3215 0.01,2.03919 c 0,2.17079 0.5781,6.63578 1.0765,8.38918 1.0622,3.73682 2.7715,4.94646 16.0927,11.38792 4.0149,1.94144 7.3346,3.69581 7.377,3.8986 0.2267,1.08395 -6.3717,1.87365 -10.5503,1.26266 -4.2555,-0.62223 -9.3318,-2.48153 -12.2422,-4.48396 -0.6559,-0.45124 -1.2573,-0.82043 -1.3366,-0.82043 -0.2739,0 1.4542,4.37615 2.9023,7.34965 1.7263,3.54489 2.8542,4.7816 5.498,6.02829 3.6602,1.726 7.8493,2.39139 13.4027,2.12886 1.9646,-0.0929 3.8398,-0.24049 4.1672,-0.32805 0.9985,-0.26702 0.726,0.72554 -0.5291,1.92766 -5.999,5.74568 -13.9979,8.62602 -19.7858,7.12467 -0.7955,-0.20635 -1.4959,-0.32568 -1.5564,-0.26514 -0.2141,0.21407 0.8195,3.43622 1.508,4.70122 0.9508,1.74702 2.8715,3.41535 4.5597,3.96057 1.9656,0.63482 5.6919,0.59074 8.2022,-0.0971 2.3929,-0.65561 6.1408,-2.43355 8.5853,-4.07275 0.989,-0.66321 1.9015,-1.20584 2.0277,-1.20584 1.0623,0 -1.5753,4.22169 -4.0195,6.43347 -1.8895,1.70995 -4.5236,3.11648 -7.128,3.80611 -2.0182,0.53441 -7.4706,0.61468 -9.1133,0.13417 -0.5739,-0.16787 -1.0818,-0.26685 -1.1287,-0.21997 -0.2361,0.23611 3.4135,4.89511 5.0589,6.45808 2.2673,2.15371 3.4598,2.76979 5.6471,2.9174 4.3952,0.29663 10.2311,-3.03532 17.7013,-10.10642 3.4857,-3.29943 3.7472,-3.31293 2.7123,-0.13999 -1.0353,3.17418 -2.3148,5.25267 -4.725,7.6754 -1.8579,1.8677 -2.704,2.49391 -4.7363,3.50573 l -2.4743,1.23185 h 1.3152 c 0.7233,0 2.3725,-0.18166 3.6649,-0.4037 z"
       id="path1373" />
    <path
       style="fill:#730030;fill-opacity:1;stroke:#454f59;stroke-width:0.264583;stroke-opacity:1"
       d="m 982.21697,198.25114 c -0.497,-1.64526 -2.3619,-2.59838 -4.1963,-2.14472 l -0.9158,0.22649 0.7792,0.86754 c 0.6427,0.7157 0.8682,0.81989 1.2878,0.59531 0.8137,-0.43548 1.5185,-0.31951 2.3146,0.38087 0.918,0.80764 0.953,0.81121 0.7305,0.0745 z"
       id="path1369" />
    <path
       style="fill:#730030;fill-opacity:1;stroke:#454f59;stroke-width:0.264583;stroke-opacity:1"
       d="m 880.12647,197.62545 c 0.3706,-0.093 0.9892,-0.0254 1.3747,0.15034 0.5468,0.2491 0.7244,0.24923 0.8073,0 0.058,-0.1754 0.3395,-0.55206 0.6245,-0.83704 0.6464,-0.64646 0.5258,-0.76798 -0.9243,-0.93141 -1.4282,-0.16101 -2.663,0.41563 -3.2274,1.50704 -0.5672,1.09675 -0.4979,1.535 0.1351,0.8555 0.2951,-0.31673 0.8397,-0.65193 1.2101,-0.74493 z"
       id="path1365" />
    <path
       style="fill:#730030;fill-opacity:1;stroke:#454f59;stroke-width:0.264583;stroke-opacity:1"
       d="m 949.73687,201.62457 c 0.47,-2.21596 0.3286,-4.09196 -0.4813,-6.38614 -0.3255,-0.92208 -0.5128,-1.75557 -0.4162,-1.85219 0.097,-0.0966 1.1004,0.10641 2.2305,0.45117 2.3696,0.72286 6.761,0.87828 8.1344,0.28789 l 0.788,-0.33872 -1.7211,-0.5792 c -1.99,-0.66969 -3.805,-1.92514 -5.738,-3.96902 -1.3778,-1.45682 -3.7589,-4.92312 -4.8046,-6.99452 -0.3123,-0.61846 -0.6738,-1.12448 -0.8033,-1.12448 -0.5346,0 -5.31,8.32908 -5.31,9.26158 0,0.18225 0.7632,1.14033 1.6959,2.12905 3.1158,3.30293 4.8909,7.00588 5.1302,10.70208 l 0.137,2.11667 0.3828,-0.92604 c 0.2106,-0.50932 0.5596,-1.75948 0.7757,-2.77813 z"
       id="path1361" />
    <path
       style="fill:#730030;fill-opacity:1;stroke:#454f59;stroke-width:0.264583;stroke-opacity:1"
       d="m 913.10387,199.16956 c 0.9718,-2.39234 2.1962,-4.32105 4.27,-6.72585 l 1.82,-2.11055 -1.2052,-2.42409 c -0.6629,-1.33326 -1.8851,-3.47207 -2.716,-4.75295 l -1.5107,-2.32883 -0.9129,1.64719 c -3.4065,6.14616 -7,9.70714 -11.0442,10.9442 l -1.0677,0.3266 0.7938,0.35634 c 1.3596,0.61039 5.4739,0.47966 8.0093,-0.2545 1.2037,-0.34854 2.2625,-0.55976 2.3529,-0.46935 0.09,0.0904 -0.1037,0.89943 -0.4313,1.79787 -1.0579,2.90145 -0.981,6.17263 0.2135,9.08355 l 0.4389,1.06955 0.1574,-2.24896 c 0.1051,-1.50082 0.3819,-2.80159 0.8322,-3.91022 z"
       id="path1357" />
    <path
       style="fill:#730030;fill-opacity:1;stroke:#454f59;stroke-width:0.264583;stroke-opacity:1"
       d="m 931.51647,176.68412 c 0.2863,-0.40208 0.5624,-1.02274 0.6134,-1.37927 0.071,-0.49924 0.304,-0.69117 1.0124,-0.83524 1.1157,-0.2269 1.913,-1.13691 1.8055,-2.06094 -0.071,-0.61087 -0.1791,-0.67339 -1.036,-0.59923 -1.7884,0.15476 -1.8215,0.0257 -1.8215,-7.11314 v -6.33111 h 2.6459 c 2.293,0 2.7164,0.0706 3.175,0.52917 0.599,0.59903 0.6442,0.87815 0.2587,1.59839 -0.228,0.42605 -0.1626,0.53233 0.4173,0.67786 1.2438,0.31218 1.9496,-0.32416 2.5982,-2.34239 0.082,-0.25467 0.3609,-0.46347 0.6201,-0.46402 0.686,-0.001 2.1911,-0.98531 2.1911,-1.43231 0,-0.46905 -1.2337,-1.37824 -2.199,-1.6205 -0.508,-0.1275 -0.7114,-0.34848 -0.7114,-0.7727 0,-0.32678 -0.2989,-0.91664 -0.6642,-1.3108 -0.5083,-0.54843 -0.8654,-0.69724 -1.5214,-0.63394 -0.855,0.0825 -0.8736,0.1256 -0.5476,1.27333 0.062,0.21828 -0.062,0.635 -0.2751,0.92604 -0.3374,0.46033 -0.7546,0.54098 -3.2071,0.61996 l -2.8194,0.0908 0.086,-4.00355 c 0.095,-4.43813 0.1501,-4.57425 1.8054,-4.44976 0.82,0.0617 0.9351,-0.008 1.0054,-0.61237 0.1061,-0.91193 -0.6854,-1.83291 -1.7648,-2.05367 -0.7217,-0.14761 -0.9423,-0.36379 -1.2326,-1.20833 -0.7648,-2.22453 -1.6413,-2.24881 -2.7324,-0.0757 -0.3877,0.77226 -0.7993,1.2416 -1.0888,1.2416 -0.9053,0 -1.8597,1.02989 -1.8597,2.0067 0,0.90539 0,0.90916 1.005,0.74927 1.6206,-0.25915 1.7731,0.12747 1.7731,4.49396 v 3.73028 l -2.5135,0.0671 c -3.2551,0.0869 -3.8562,-0.18869 -3.7864,-1.73595 0.048,-1.0661 0.019,-1.1093 -0.7396,-1.1093 -0.9732,0 -2.0886,1.04208 -2.0886,1.95133 0,0.50752 -0.1736,0.69058 -0.7813,0.82407 -0.942,0.20689 -2.1291,1.09422 -2.1291,1.59141 0,0.45139 1.2215,1.32037 2.1828,1.55277 0.5553,0.13427 0.7276,0.33419 0.7276,0.84436 0,0.9501 1.1493,2.02264 2.0556,1.91825 0.6595,-0.076 0.7151,-0.16826 0.6378,-1.05713 -0.1319,-1.5154 0.5836,-1.84248 3.8238,-1.74804 l 2.6109,0.0761 v 6.24371 c 0,7.10885 -0.041,7.27067 -1.7749,7.03808 -0.9819,-0.13171 -1.0032,-0.11647 -1.0032,0.72017 0,0.97798 0.8324,1.90899 1.8314,2.04827 0.4411,0.0615 0.7195,0.3366 0.8936,0.8831 0.2935,0.9216 1.1873,1.98437 1.6687,1.98437 0.183,0 0.567,-0.32898 0.8533,-0.73107 z"
       id="path1353" />
    <path
       id="path1345"
       style="fill:#730030;fill-opacity:1;stroke:#454f59;stroke-width:0.264583;stroke-opacity:1"
       d="m 927.51495,131.83248 c -0.1779,0.006 -0.45746,0.19423 -1.03044,0.60928 -1.14679,0.83077 -4.76311,2.10868 -5.98361,2.1146 -0.6392,0.003 -0.80412,0.21834 -1.57562,2.05515 -0.4741,1.12851 -1.95257,4.07358 -3.28559,6.54484 -4.5624,8.45844 -5.6116,11.5678 -5.58001,16.53181 0.039,6.16677 1.65497,9.95479 9.57926,22.45392 1.77761,2.80387 3.72907,6.13178 4.33618,7.39541 1.0291,2.14193 1.10379,2.45031 1.10379,4.55063 0,3.28584 -0.88159,4.95453 -4.69739,8.89351 -3.33409,3.44173 -3.33764,3.40602 0.33176,3.38843 1.83552,-0.009 2.51648,-0.1344 3.70417,-0.68317 1.343,-0.62053 3.175,-2.15361 3.175,-2.6572 0,-0.11789 0.23807,-0.21445 0.52917,-0.21445 0.47651,0 0.52961,0.17792 0.53382,1.78593 0,2.05126 0.55809,4.93773 1.17409,6.12883 0.2322,0.44911 0.47585,0.81649 0.54105,0.81649 0.065,0 0.3135,-0.37721 0.55192,-0.8382 0.54329,-1.05066 1.14638,-4.36703 1.15858,-6.3717 0.01,-0.93263 0.12282,-1.52135 0.30282,-1.52135 0.1615,0 0.94218,0.5928 1.73476,1.31723 1.69223,1.54657 3.2997,2.12235 5.92421,2.12235 3.7038,0 3.69096,0.11459 0.36018,-3.25872 -2.3503,-2.38032 -3.12992,-3.37045 -3.93052,-4.99039 -0.95419,-1.93058 -0.99494,-2.11949 -0.90485,-4.22817 0.083,-1.94228 0.22672,-2.48285 1.19682,-4.50205 0.6064,-1.26208 2.64183,-4.71787 4.52323,-7.68015 7.69893,-12.12175 9.32551,-15.98544 9.32141,-22.13973 0,-4.9866 -0.90501,-7.66516 -5.52731,-16.4176 -1.58091,-2.99339 -3.14409,-6.11624 -3.47369,-6.93963 -0.58139,-1.45248 -0.63486,-1.50233 -1.79884,-1.6769 -2.03171,-0.30467 -4.4046,-1.14821 -5.53612,-1.96784 -0.81349,-0.58928 -1.1135,-0.69308 -1.21801,-0.42063 -0.076,0.1988 -0.69813,0.68966 -1.38181,1.09034 l -1.24336,0.72867 -1.1689,-0.62013 c -0.64281,-0.34103 -1.28416,-0.83664 -1.42576,-1.10123 -0.10496,-0.19611 -0.18203,-0.30249 -0.32039,-0.29818 z m 3.20755,5.81154 1.35339,0.86816 c 0.80902,0.51916 1.62394,1.33035 2.02624,2.01694 0.3702,0.63161 1.07513,1.39655 1.56633,1.70016 1.87629,1.15946 2.6933,3.76753 1.8624,5.94331 -0.24849,0.6514 -0.38375,1.29476 -0.30075,1.42986 0.0835,0.13507 0.62042,0.18275 1.19322,0.10594 0.5729,-0.0769 1.4732,-0.0586 2.00038,0.0403 1.0106,0.18958 2.91285,1.7022 3.17347,2.52336 0.0838,0.26408 0.50419,0.62592 0.93429,0.80409 0.8763,0.36296 2.4026,1.94538 3.0112,3.12227 0.3801,0.73507 0.36123,0.8367 -0.35605,1.96784 -0.41611,0.65606 -1.20952,1.53496 -1.76321,1.95286 -0.55369,0.41791 -1.54787,1.34112 -2.20917,2.05207 -0.66119,0.71097 -1.58533,1.45511 -2.05361,1.65365 -1.2401,0.52581 -3.22636,0.45081 -4.44005,-0.16795 -1.65241,-0.84243 -1.72255,-0.78175 -1.71255,1.52136 0.007,1.91754 0.0583,2.10036 0.7896,2.81791 1.74771,1.71506 2.48169,4.40919 1.73426,6.36602 -0.4123,1.07968 -1.9577,2.78846 -2.52232,2.78846 -0.13071,0 -0.31316,0.23888 -0.40616,0.53072 -0.2685,0.84616 -1.47868,2.14202 -2.75799,2.95331 -0.64979,0.41209 -1.24918,0.74931 -1.33118,0.74931 -0.494,0 -2.86554,-1.86831 -3.35846,-2.64584 -0.32289,-0.50932 -0.78285,-1.10463 -1.02214,-1.32291 -1.93981,-1.76924 -2.45244,-2.42222 -2.75695,-3.50987 -0.51599,-1.84304 0.13067,-3.90181 1.83607,-5.84409 0.7311,-0.83313 0.79219,-1.05682 0.79219,-2.91816 0,-2.26431 -0.072,-2.32632 -1.71979,-1.48622 -1.21089,0.61735 -3.19469,0.69383 -4.44468,0.17157 -0.81981,-0.34255 -2.56678,-2.06463 -2.56678,-2.53009 0,-0.12279 -0.34171,-0.36451 -0.75911,-0.53742 -0.87821,-0.36375 -2.09267,-1.59557 -2.88407,-2.92489 l -0.55139,-0.92604 0.60978,-1.01028 c 0.81201,-1.3452 1.90241,-2.4582 2.7559,-2.81274 0.38312,-0.15914 0.88887,-0.62547 1.12398,-1.03663 0.235,-0.41117 0.88053,-1.09313 1.43452,-1.51567 0.8999,-0.68644 1.21377,-0.76843 2.94608,-0.76843 1.0664,0 1.93889,-0.0912 1.93889,-0.20256 0,-0.11134 -0.19042,-0.88739 -0.42322,-1.72498 -0.6154,-2.2134 -0.22567,-3.45033 1.70585,-5.41205 0.82248,-0.8354 1.90925,-2.01137 2.41535,-2.61276 0.50609,-0.60143 1.4188,-1.33533 2.0283,-1.63145 z" />
    <path
       style="fill:#730030;fill-opacity:1;stroke:#454f59;stroke-width:0.264583;stroke-opacity:1"
       d="m 877.04887,213.91018 c -0.3493,-1.20396 -0.084,-2.30388 0.7408,-3.06803 0.5902,-0.54697 0.6353,-0.70614 0.367,-1.29503 -0.1683,-0.36927 -0.3059,-0.95972 -0.3059,-1.31212 0,-0.94377 -0.6691,-0.5675 -1.4941,0.84029 -0.5685,0.97007 -0.6663,1.4115 -0.57,2.57223 0.068,0.82587 0.3655,1.80467 0.7234,2.38379 0.7206,1.16593 0.9006,1.12548 0.5388,-0.12113 z"
       id="path1341" />
    <path
       style="fill:#730030;fill-opacity:1;stroke:#454f59;stroke-width:0.264583;stroke-opacity:1"
       d="m 984.48807,213.34292 c 0.9147,-1.73043 0.5423,-3.88395 -0.9022,-5.21603 l -0.6956,-0.64143 -0.012,0.64143 c -0.01,0.3528 -0.1628,0.99531 -0.3473,1.42783 -0.313,0.73408 -0.2837,0.82986 0.441,1.43965 0.7447,0.62666 0.7708,0.72271 0.6394,2.35976 -0.1434,1.78647 -0.073,1.78557 0.8766,-0.0111 z"
       id="path1337" />
    <path
       style="fill:#730030;fill-opacity:1;stroke:#454f59;stroke-width:0.264583;stroke-opacity:1"
       d="m 973.70577,221.13508 c 1.2853,-1.16322 1.6019,-3.05031 0.747,-4.45233 -0.274,-0.44924 -1.1909,-1.40174 -2.0376,-2.11666 -3.8157,-3.22197 -4.5503,-4.37235 -3.6054,-5.64605 1.1051,-1.48942 4.1902,-1.30649 6.5762,0.38994 1.0383,0.73824 1.5302,0.91355 2.5629,0.91355 1.0716,0 1.4082,-0.1302 2.0844,-0.80637 0.723,-0.72311 0.7923,-0.93131 0.67,-2.01552 -0.094,-0.83354 -0.3535,-1.42549 -0.8357,-1.9056 -0.6797,-0.6767 -0.7809,-0.69451 -3.566,-0.62725 -2.3227,0.0561 -2.9307,-0.008 -3.2058,-0.33975 -0.513,-0.61818 0.073,-1.48789 1.6057,-2.38303 1.556,-0.90876 2.1703,-1.97029 1.7831,-3.08112 -0.2658,-0.76242 -1.3809,-1.54136 -2.2065,-1.54136 -0.671,0 -2.2357,1.70701 -2.2357,2.43906 0,0.35195 -0.1805,1.24788 -0.4012,1.99097 -1.2051,4.05791 -5.3428,3.59553 -9.9709,-1.11419 -2.1481,-2.18607 -2.1541,-2.18977 -3.1,-1.92609 -0.5212,0.14528 -1.7986,0.27901 -2.8385,0.2971 -1.8007,0.0314 -1.8779,0.0582 -1.6187,0.56211 0.9606,1.86735 3.5891,4.13263 6.7693,5.83369 1.7982,0.96187 2.1955,1.62124 1.3763,2.28452 -0.722,0.58465 -1.5662,0.60973 -2.8248,0.0839 -2.0699,-0.86487 -3.4056,-0.31676 -3.7036,1.51979 -0.1916,1.18031 0.4395,2.18909 1.6113,2.57583 1.0074,0.33245 1.8438,0.0893 3.1684,-0.92094 0.6055,-0.46188 1.2007,-0.66114 1.9747,-0.66114 2.4761,0 3.9513,1.3262 4.8023,4.31708 0.2974,1.04533 0.7202,2.52266 0.9397,3.28292 0.8934,3.09565 3.7004,4.65664 5.4791,3.04696 z"
       id="path1333" />
    <path
       style="fill:#730030;fill-opacity:1;stroke:#454f59;stroke-width:0.264583;stroke-opacity:1"
       d="m 975.95147,226.98713 c 1.7779,-1.35607 2.334,-3.9538 1.2642,-5.90545 l -0.357,-0.65124 -0.3828,0.91583 c -0.2105,0.50368 -0.5776,1.07738 -0.8157,1.27489 -0.3861,0.32012 -0.3905,0.41984 -0.041,0.91877 0.5807,0.82915 0.4767,2.09529 -0.2615,3.18315 -0.7767,1.14443 -0.6401,1.20515 0.5938,0.26405 z"
       id="path1329" />
    <path
       style="fill:#730030;fill-opacity:1;stroke:#454f59;stroke-width:0.264583;stroke-opacity:1"
       d="m 885.28927,226.73824 c -0.6587,-0.83736 -0.7395,-2.38149 -0.1674,-3.19831 0.3478,-0.49649 0.3458,-0.59809 -0.018,-0.8999 -0.2254,-0.18714 -0.6208,-0.75129 -0.8785,-1.25368 l -0.4686,-0.91345 -0.4395,1.09837 c -0.8314,2.07788 -0.4188,3.79373 1.2687,5.27531 1.1389,1.00002 1.5279,0.9401 0.7032,-0.10834 z"
       id="path1325" />
    <path
       style="fill:#730030;fill-opacity:1;stroke:#454f59;stroke-width:0.264583;stroke-opacity:1"
       d="m 952.74277,211.92536 c 0.1636,-0.19714 0.4982,-0.42214 0.7436,-0.50004 0.3451,-0.10951 0.4233,-0.38174 0.3452,-1.20086 -0.056,-0.58259 -0.1594,-1.05926 -0.2308,-1.05926 -0.3894,0 -1.7289,1.20496 -2.0676,1.85981 -0.5002,0.96739 -0.4937,1.36861 0.042,2.58045 l 0.4348,0.9837 0.2177,-1.15269 c 0.1197,-0.63399 0.3515,-1.314 0.5151,-1.51111 z"
       id="path1321" />
    <path
       style="fill:#730030;fill-opacity:1;stroke:#454f59;stroke-width:0.264583;stroke-opacity:1"
       d="m 956.48997,235.5382 c 3.1515,-4.6409 3.7651,-8.97999 1.8149,-12.83459 -1.5862,-3.13513 -4.1171,-5.27622 -9.2812,-7.85172 -1.8666,-0.93089 -3.4144,-1.90598 -4.0042,-2.52254 -0.942,-0.98481 -0.9847,-0.9996 -2.1166,-0.73353 -2.0939,0.49218 -5.2442,0.37542 -6.633,-0.24582 l -1.2445,-0.55664 0.6633,1.50101 c 1.4936,3.37976 3.9442,6.51026 6.6718,8.52292 2.9676,2.18966 5.828,2.73449 8.395,1.59898 0.6852,-0.30308 1.3852,-0.55108 1.5554,-0.55108 0.1702,0 0.7575,0.45869 1.3049,1.01934 2.0137,2.06219 2.5896,6.66869 1.4933,11.94525 -0.2872,1.38245 -0.5238,2.61741 -0.5257,2.74436 -0.01,0.43582 0.847,-0.47564 1.9066,-2.03594 z"
       id="path1319" />
    <path
       style="fill:#730030;fill-opacity:1;stroke:#454f59;stroke-width:0.264583;stroke-opacity:1"
       d="m 905.84317,210.05732 c -0.087,-0.69945 -0.1057,-0.68101 -0.2321,0.23212 -0.079,0.56877 -0.038,0.89292 0.095,0.75983 0.1276,-0.12766 0.1895,-0.57404 0.1373,-0.99195 z"
       id="path1315" />
    <path
       style="fill:#730030;fill-opacity:1;stroke:#454f59;stroke-width:0.264583;stroke-opacity:1"
       d="m 908.66787,213.94085 c 0.8781,-1.69807 0.2214,-3.36209 -1.7876,-4.5294 -0.4114,-0.23903 -0.4507,-0.19093 -0.3083,0.37668 0.09,0.35788 0.03,0.8999 -0.1331,1.20452 -0.2255,0.42143 -0.2191,0.5538 0.027,0.5538 0.7301,0 1.5477,1.14252 1.5477,2.16278 0,1.21666 0.1229,1.26011 0.6547,0.23162 z"
       id="path1313" />
    <path
       style="fill:#730030;fill-opacity:1;stroke:#454f59;stroke-width:0.264583;stroke-opacity:1"
       d="m 889.94617,221.42358 c 1.4446,-0.68548 2.3381,-2.15982 2.9686,-4.89821 0.7397,-3.21251 1.6807,-4.91825 3.0587,-5.54428 1.6395,-0.74481 2.9991,-0.63786 4.496,0.35369 1.7371,1.15062 2.8499,1.14102 3.8995,-0.0337 0.8597,-0.96223 0.8732,-1.87695 0.046,-3.13915 -0.3572,-0.54517 -0.5698,-0.61571 -1.5175,-0.50342 -0.6062,0.0718 -1.6151,0.28805 -2.2421,0.48054 -0.9775,0.30006 -1.2416,0.29297 -1.8521,-0.0497 -0.3916,-0.21982 -0.7121,-0.6285 -0.7121,-0.90816 0,-0.52938 0.5603,-0.95186 3.3338,-2.51394 1.74,-0.98001 4.3089,-3.3474 5.0423,-4.64688 l 0.4386,-0.77708 -1.8938,-0.0305 c -1.0416,-0.0167 -2.3267,-0.15224 -2.8558,-0.30107 l -0.9619,-0.27058 -2.3454,2.30161 c -3.3865,3.3234 -5.9838,4.40608 -8.1749,3.40772 -0.8858,-0.40359 -1.6952,-1.98548 -1.8998,-3.71284 -0.2168,-1.8305 -1.2027,-2.95542 -2.5901,-2.95542 -0.7566,0 -1.1436,0.17407 -1.621,0.72913 -0.345,0.40101 -0.6267,0.93084 -0.6262,1.1774 0,0.79047 0.9675,2.06513 1.9,2.50762 1.2219,0.57986 1.8638,1.3413 1.7583,2.086 -0.086,0.60499 -0.1464,0.61714 -3.084,0.61714 h -2.9966 l -0.7737,0.86407 c -1.0935,1.22119 -1.0813,2.70553 0.032,3.81831 0.7367,0.73663 0.9243,0.79534 2.2035,0.68924 0.9868,-0.0818 1.6734,-0.32583 2.3334,-0.82923 2.7676,-2.1109 6.8287,-1.86912 6.8287,0.40653 0,1.26061 -0.6656,2.17755 -2.8349,3.90536 -2.5555,2.03538 -3.5151,3.37941 -3.5151,4.92357 0,0.83889 0.1821,1.34694 0.706,1.96956 1.1354,1.3493 1.9955,1.56774 3.452,0.87659 z"
       id="path1311" />
    <path
       style="fill:#730030;fill-opacity:1;stroke:#454f59;stroke-width:0.264583;stroke-opacity:1"
       d="m 905.62577,235.08195 c -0.6246,-3.02752 -0.6941,-7.53689 -0.1443,-9.36392 0.4836,-1.60658 1.463,-3.08708 2.36,-3.56711 0.6343,-0.33949 0.8289,-0.31626 2.019,0.24117 3.1447,1.47293 6.8719,0.28823 10.4452,-3.31997 2.1441,-2.16503 3.5472,-4.13578 4.5352,-6.36981 0.7183,-1.62409 0.6955,-1.87767 -0.1291,-1.43637 -1.4978,0.80158 -5.2789,0.85987 -7.9011,0.12178 -0.4308,-0.12123 -0.5954,-0.0558 -0.5954,0.23665 0,0.67561 -1.5252,1.74231 -4.8625,3.40069 -3.592,1.7849 -5.0977,2.8118 -6.8155,4.6483 -4.5648,4.88016 -4.3877,10.9148 0.4976,16.95685 0.5065,0.62646 0.9628,1.0971 1.0139,1.04593 0.051,-0.0512 -0.1391,-1.21857 -0.423,-2.59419 z"
       id="path1309" />
    <path
       style="fill:#730030;fill-opacity:1;stroke:#454f59;stroke-width:0.264583;stroke-opacity:1"
       d="m 922.83997,239.70491 c -0.6135,-0.66566 -1.3568,-1.75575 -1.6517,-2.42239 -0.7467,-1.68794 -0.7388,-4.43561 0.019,-6.71354 0.7179,-2.15728 2.1305,-4.56597 2.7474,-4.68479 0.4113,-0.0792 0.4625,0.16303 0.4625,2.19046 0,3.74224 0.8899,7.25215 2.4541,9.67938 1.6621,2.57921 3.8563,3.11886 5.7446,1.4129 2.0883,-1.88663 3.3751,-5.55929 3.6288,-10.35642 0.177,-3.34891 0.4273,-3.67126 1.5139,-1.94996 1.3973,2.21351 2.0861,4.29628 2.2113,6.68682 0.108,2.06187 0.05,2.44321 -0.5865,3.83646 -0.3885,0.85084 -1.141,1.99347 -1.6723,2.53918 l -0.9659,0.99218 h 0.8175 c 1.4337,0 3.2767,-1.48269 4.1847,-3.36674 0.4365,-0.9058 0.9395,-1.64994 1.1177,-1.65365 0.1781,-0.004 0.5078,0.34888 0.7325,0.78349 0.6802,1.31535 1.9634,2.60236 2.7718,2.7799 1.4713,0.32316 3.4478,-1.44614 3.4478,-3.0865 0,-0.95602 -1.3398,-2.8901 -2.6104,-3.76833 -0.6241,-0.43132 -1.0818,-0.94639 -1.0387,-1.16872 0.042,-0.21859 0.5864,-0.56713 1.2087,-0.77451 1.0822,-0.3606 2.9695,-1.85158 2.9695,-2.34585 0,-0.12941 -0.9295,-0.24905 -2.0655,-0.26585 -4.1988,-0.0621 -7.7456,-1.68794 -11.1636,-5.11739 -1.237,-1.24105 -2.6967,-3.03038 -3.244,-3.97626 -1.5431,-2.66713 -1.3647,-2.49222 -2.0806,-2.03983 -1.1725,0.74096 -1.6884,0.75557 -2.6896,0.0762 -0.9081,-0.61627 -0.9645,-0.62384 -1.1151,-0.14939 -0.3832,1.20735 -3.0021,4.782 -4.7565,6.49222 -3.1209,3.04249 -6.7292,4.62301 -10.7291,4.6996 -1.1594,0.0222 -2.108,0.12256 -2.108,0.223 0,0.10046 0.2901,0.52752 0.6448,0.94903 0.5694,0.6767 1.6755,1.29852 3.1255,1.75702 0.762,0.24098 0.5297,0.8387 -0.6407,1.6484 -1.4575,1.00838 -2.6007,2.61255 -2.5995,3.64755 0,1.13967 0.8789,2.46348 1.9816,2.98929 0.8679,0.41389 0.9882,0.41368 1.862,-0.003 0.6177,-0.29456 1.2676,-0.97944 1.9183,-2.02142 0.5412,-0.86677 1.0721,-1.58131 1.1798,-1.58789 0.1077,-0.007 0.5373,0.73218 0.9547,1.64168 1.0381,2.26185 2.6556,3.60352 4.3733,3.62744 l 0.7613,0.0106 -1.1156,-1.21028 z"
       id="path1305" />
  </g>
</svg>
