<?xml version="1.0" encoding="UTF-8" standalone="no"?>
<svg
   xmlns:dc="http://purl.org/dc/elements/1.1/"
   xmlns:cc="http://creativecommons.org/ns#"
   xmlns:rdf="http://www.w3.org/1999/02/22-rdf-syntax-ns#"
   xmlns:svg="http://www.w3.org/2000/svg"
   xmlns="http://www.w3.org/2000/svg"
   xmlns:sodipodi="http://sodipodi.sourceforge.net/DTD/sodipodi-0.dtd"
   xmlns:inkscape="http://www.inkscape.org/namespaces/inkscape"
   viewBox="0 0 628.30585 500.31564"
   version="1.1"
   id="svg4"
   sodipodi:docname="gears.svg"
   inkscape:version="1.0.2-2 (e86c870879, 2021-01-15)"
   width="628.30585"
   height="500.31564">
  <metadata
     id="metadata10">
    <rdf:RDF>
      <cc:Work
         rdf:about="">
        <dc:format>image/svg+xml</dc:format>
        <dc:type
           rdf:resource="http://purl.org/dc/dcmitype/StillImage" />
        <dc:title></dc:title>
      </cc:Work>
    </rdf:RDF>
  </metadata>
  <defs
     id="defs8" />
  <sodipodi:namedview
     pagecolor="#ffffff"
     bordercolor="#666666"
     borderopacity="1"
     objecttolerance="10"
     gridtolerance="10"
     guidetolerance="10"
     inkscape:pageopacity="0"
     inkscape:pageshadow="2"
     inkscape:window-width="2094"
     inkscape:window-height="1168"
     id="namedview6"
     showgrid="false"
     inkscape:zoom="1.628125"
     inkscape:cx="316.30587"
     inkscape:cy="248"
     inkscape:window-x="0"
     inkscape:window-y="0"
     inkscape:window-maximized="0"
     inkscape:current-layer="svg4"
     inkscape:document-rotation="0"
     fit-margin-top="0"
     fit-margin-left="0"
     fit-margin-right="0"
     fit-margin-bottom="0" />
  <!--! Font Awesome Pro 6.1.1 by @fontawesome - https://fontawesome.com License - https://fontawesome.com/license (Commercial License) Copyright 2022 Fonticons, Inc. -->
  <path
     d="m 282.60587,147.1 c 1.1,6.8 1.7,13.8 1.7,20 0,8 -0.6,15 -1.7,21.8 l 22.2,19.8 c 7,6.3 9.9,15.4 6.2,25 -2.3,4.4 -4.8,10.5 -7.6,15.5 l -3.1,5.4 c -3.9,5 -6.3,9.8 -9.8,14.5 -5.7,7.6 -15.7,10.1 -24.7,7.1 l -28.3,-9.3 c -10.7,8.9 -22.9,16 -36.2,21 l -6.9,29 c -1.1,9.3 -8.3,16.7 -17.7,17.9 -6.7,0.8 -13.5,1.2 -20.4,1.2 -6.9,0 -13.7,-0.4 -20.4,-1.2 -9.4,-1.2 -17.5,-8.6 -18.6,-17.9 l -6.9,-29 c -12.400004,-5 -24.600004,-12.1 -35.350004,-21 l -28.22,9.3 c -8.99,3 -19.01,0.5 -24.71,-7.1 -3.54,-4.7 -6.84,-9.6 -9.88,-14.6 l -3.0199997,-5.3 c -2.79,-5 -5.328,-10.2 -7.596,-15.5 -3.704,-9.6 -0.866,-18.7 6.196,-25 L 30.005866,188.9 c -1.12,-6.8 -2.6,-13.8 -2.6,-21.8 0,-6.2 1.48,-13.2 2.6,-20 L 7.8258663,127.3 c -7.062,-7.2 -9.9,-16.3 -6.196,-25 2.268,-6.2 4.806,-10.51 7.586,-15.54 l 3.0399997,-5.25 c 3.03,-5.05 6.33,-9.93 9.87,-14.62 5.7,-7.55 15.72,-10.06 24.71,-7.1 l 28.22,9.3 c 10.75,-8.84 22.95,-15.96 35.350004,-20.94 l 6.9,-29.07 c 1.1,-9.28 9.2,-16.71 18.6,-17.849 6.7,-0.813 13.5,-1.231 20.4,-1.231 6.9,0 13.7,0.418 20.4,1.23 9.4,1.14 16.6,8.57 17.7,17.85 l 6.9,29.07 c 13.3,4.98 25.5,12.1 36.2,20.94 l 28.3,-9.3 c 9,-2.96 19,-0.45 24.7,7.1 3.5,4.67 5.9,9.53 9.8,14.55 l 3.1,5.39 c 2.8,5.01 5.3,10.17 7.6,15.47 3.7,8.7 0.8,17.8 -6.2,25 z m -126.3,-28 c -26.5,0 -48,22.4 -48,48 0,27.4 21.5,48 48,48 26.5,0 48,-20.6 48,-48 0,-25.6 -21.5,-48 -48,-48 z m 324.9,351.2 c -6.8,1.1 -13.8,1.7 -20.9,1.7 -7.1,0 -14.1,-0.6 -20.9,-1.7 l -19.8,22.2 c -7.2,7 -16.3,9.9 -25,6.2 -5.3,-2.3 -10.5,-4.8 -15.5,-7.6 l -5.4,-3.1 c -5,-3.9 -9.8,-6.3 -14.5,-9.8 -7.6,-5.7 -10.1,-15.7 -7.1,-24.7 l 9.3,-28.3 c -8.9,-10.7 -16,-22.9 -21,-36.2 l -29,-6.9 c -9.3,-1.1 -16.7,-8.3 -17.9,-17.7 -0.8,-6.7 -1.2,-13.5 -1.2,-20.4 0,-6.9 0.4,-13.7 1.2,-20.4 1.2,-9.4 8.6,-17.5 17.9,-18.6 l 29,-6.9 c 5,-12.4 12.1,-24.6 21,-35.3 l -9.3,-28.3 c -3,-9 -0.5,-19 7.1,-24.7 4.7,-3.5 9.6,-7.7 14.6,-9.9 l 5.3,-3 c 5,-2.8 9.3,-5.3 15.5,-7.6 8.7,-3.7 17.8,-0.8 25,6.2 l 19.8,22.2 c 6.8,-1.1 13.8,-1.7 20.9,-1.7 7.1,0 14.1,0.6 20.9,1.7 l 19.8,-22.2 c 6.3,-7 15.4,-9.9 25,-6.2 5.3,2.3 10.5,4.8 15.5,7.6 l 5.3,3 c 5,2.2 9.9,6.4 14.6,9.9 7.6,5.7 10.1,15.7 7.1,24.7 l -9.3,28.3 c 8.9,10.7 16,22.9 21,35.3 l 29,6.9 c 9.3,1.1 16.7,9.2 17.9,18.6 0.8,6.7 1.2,13.5 1.2,20.4 0,6.9 -0.4,13.7 -1.2,20.4 -1.2,9.4 -8.6,16.6 -17.9,17.7 l -29,6.9 c -5,13.3 -12.1,25.5 -21,36.2 l 9.3,28.3 c 3,9 0.5,19 -7.1,24.7 -4.7,3.5 -9.5,5.9 -14.5,9.8 l -5.4,3.1 c -5,2.8 -11.1,5.3 -15.5,7.6 -9.6,3.7 -18.7,0.8 -25,-6.2 z m 27.1,-126.3 c 0,-26.5 -21.5,-48 -48,-48 -26.5,0 -48,21.5 -48,48 0,26.5 21.5,48 48,48 26.5,0 48,-21.5 48,-48 z"
     id="path2"
     style="fill:#1565c0;fill-opacity:1" />
</svg>
