<?xml version="1.0" encoding="UTF-8" standalone="no"?>
<svg
   aria-hidden="true"
   focusable="false"
   data-prefix="fas"
   data-icon="building"
   class="svg-inline--fa fa-building fa-w-14"
   role="img"
   viewBox="0 0 448 512"
   version="1.1"
   id="svg4"
   sodipodi:docname="highrise.svg"
   inkscape:version="1.1.2 (b8e25be833, 2022-02-05)"
   xmlns:inkscape="http://www.inkscape.org/namespaces/inkscape"
   xmlns:sodipodi="http://sodipodi.sourceforge.net/DTD/sodipodi-0.dtd"
   xmlns:xlink="http://www.w3.org/1999/xlink"
   xmlns="http://www.w3.org/2000/svg"
   xmlns:svg="http://www.w3.org/2000/svg">
  <defs
     id="defs8" />
  <sodipodi:namedview
     id="namedview6"
     pagecolor="#ffffff"
     bordercolor="#666666"
     borderopacity="1.0"
     inkscape:pageshadow="2"
     inkscape:pageopacity="0.0"
     inkscape:pagecheckerboard="0"
     showgrid="false"
     showguides="true"
     inkscape:guide-bbox="true"
     inkscape:zoom="0.3968515"
     inkscape:cx="275.92185"
     inkscape:cy="154.96981"
     inkscape:window-width="1920"
     inkscape:window-height="991"
     inkscape:window-x="-9"
     inkscape:window-y="-9"
     inkscape:window-maximized="1"
     inkscape:current-layer="svg4" />
  <path
     fill="currentColor"
     d="M 436,480 H 368 V 24 C 368,10.745 357.255,0 344,0 H 104 C 90.745,0 80.058135,10.745127 80,24 V 480 H 12 c -6.627,0 -12,5.373 -12,12 v 20 h 448 v -20 c 0,-6.627 -5.373,-12 -12,-12 z"
     id="path382"
     sodipodi:nodetypes="scsssscssccss"
     style="fill:#1565c0;fill-opacity:1" />
  <path
     d="m 147.34644,59.902371 h -26.8356 c -4.44599,0 -8.05068,-3.60469 -8.05068,-8.05068 v -26.8356 c 0,-4.44599 3.60469,-8.05068 8.05068,-8.05068 h 26.8356 c 4.44599,0 8.05068,3.60469 8.05068,8.05068 v 26.8356 c 0,4.44599 -3.60469,8.05068 -8.05068,8.05068 z"
     style="fill:#ffffff;fill-opacity:1;stroke-width:0.67089"
     id="path3073"
     sodipodi:nodetypes="sssssssss"
     inkscape:tile-cx="149.46848"
     inkscape:tile-cy="-394.12087"
     inkscape:tile-w="42.93696"
     inkscape:tile-h="42.93696"
     inkscape:tile-x0="128"
     inkscape:tile-y0="-415.58935" />
  <use
     x="0"
     y="0"
     inkscape:tiled-clone-of="#path3073"
     xlink:href="#path3073"
     transform="translate(3e-7,60.111751)"
     id="use4097"
     style="fill:#ffffff;fill-opacity:1"
     width="100%"
     height="100%" />
  <use
     x="0"
     y="0"
     inkscape:tiled-clone-of="#path3073"
     xlink:href="#path3073"
     transform="translate(3e-7,120.22349)"
     id="use4099"
     style="fill:#ffffff;fill-opacity:1"
     width="100%"
     height="100%" />
  <use
     x="0"
     y="0"
     inkscape:tiled-clone-of="#path3073"
     xlink:href="#path3073"
     transform="translate(3e-7,180.33523)"
     id="use4101"
     style="fill:#ffffff;fill-opacity:1"
     width="100%"
     height="100%" />
  <use
     x="0"
     y="0"
     inkscape:tiled-clone-of="#path3073"
     xlink:href="#path3073"
     transform="translate(3e-7,240.44698)"
     id="use4103"
     style="fill:#ffffff;fill-opacity:1"
     width="100%"
     height="100%" />
  <use
     x="0"
     y="0"
     inkscape:tiled-clone-of="#path3073"
     xlink:href="#path3073"
     transform="translate(60.11175)"
     id="use4109"
     style="fill:#ffffff;fill-opacity:1"
     width="100%"
     height="100%" />
  <use
     x="0"
     y="0"
     inkscape:tiled-clone-of="#path3073"
     xlink:href="#path3073"
     transform="translate(60.11175,60.111751)"
     id="use4111"
     style="fill:#ffffff;fill-opacity:1"
     width="100%"
     height="100%" />
  <use
     x="0"
     y="0"
     inkscape:tiled-clone-of="#path3073"
     xlink:href="#path3073"
     transform="translate(60.11175,120.22349)"
     id="use4113"
     style="fill:#ffffff;fill-opacity:1"
     width="100%"
     height="100%" />
  <use
     x="0"
     y="0"
     inkscape:tiled-clone-of="#path3073"
     xlink:href="#path3073"
     transform="translate(60.11175,180.33523)"
     id="use4115"
     style="fill:#ffffff;fill-opacity:1"
     width="100%"
     height="100%" />
  <use
     x="0"
     y="0"
     inkscape:tiled-clone-of="#path3073"
     xlink:href="#path3073"
     transform="translate(60.11175,240.44698)"
     id="use4117"
     style="fill:#ffffff;fill-opacity:1"
     width="100%"
     height="100%" />
  <use
     x="0"
     y="0"
     inkscape:tiled-clone-of="#path3073"
     xlink:href="#path3073"
     transform="translate(120.22349)"
     id="use4123"
     style="fill:#ffffff;fill-opacity:1"
     width="100%"
     height="100%" />
  <use
     x="0"
     y="0"
     inkscape:tiled-clone-of="#path3073"
     xlink:href="#path3073"
     transform="translate(120.22349,60.111751)"
     id="use4125"
     style="fill:#ffffff;fill-opacity:1"
     width="100%"
     height="100%" />
  <use
     x="0"
     y="0"
     inkscape:tiled-clone-of="#path3073"
     xlink:href="#path3073"
     transform="translate(120.22349,120.22349)"
     id="use4127"
     style="fill:#ffffff;fill-opacity:1"
     width="100%"
     height="100%" />
  <use
     x="0"
     y="0"
     inkscape:tiled-clone-of="#path3073"
     xlink:href="#path3073"
     transform="translate(120.22349,180.33523)"
     id="use4129"
     style="fill:#ffffff;fill-opacity:1"
     width="100%"
     height="100%" />
  <use
     x="0"
     y="0"
     inkscape:tiled-clone-of="#path3073"
     xlink:href="#path3073"
     transform="translate(120.22349,240.44698)"
     id="use4131"
     style="fill:#ffffff;fill-opacity:1"
     width="100%"
     height="100%" />
  <use
     x="0"
     y="0"
     inkscape:tiled-clone-of="#path3073"
     xlink:href="#path3073"
     transform="translate(180.33523)"
     id="use4137"
     style="fill:#ffffff;fill-opacity:1"
     width="100%"
     height="100%" />
  <use
     x="0"
     y="0"
     inkscape:tiled-clone-of="#path3073"
     xlink:href="#path3073"
     transform="translate(180.33523,60.111751)"
     id="use4139"
     style="fill:#ffffff;fill-opacity:1"
     width="100%"
     height="100%" />
  <use
     x="0"
     y="0"
     inkscape:tiled-clone-of="#path3073"
     xlink:href="#path3073"
     transform="translate(180.33523,120.22349)"
     id="use4141"
     style="fill:#ffffff;fill-opacity:1"
     width="100%"
     height="100%" />
  <use
     x="0"
     y="0"
     inkscape:tiled-clone-of="#path3073"
     xlink:href="#path3073"
     transform="translate(180.33523,180.33523)"
     id="use4143"
     style="fill:#ffffff;fill-opacity:1"
     width="100%"
     height="100%" />
  <use
     x="0"
     y="0"
     inkscape:tiled-clone-of="#path3073"
     xlink:href="#path3073"
     transform="translate(180.33523,240.44698)"
     id="use4145"
     style="fill:#ffffff;fill-opacity:1"
     width="100%"
     height="100%" />
  <use
     x="0"
     y="0"
     inkscape:tiled-clone-of="#path3073"
     xlink:href="#path3073"
     transform="translate(180.33523)"
     id="use4137-4"
     style="fill:#ffffff;fill-opacity:1"
     width="100%"
     height="100%" />
  <use
     x="0"
     y="0"
     inkscape:tiled-clone-of="#path3073"
     xlink:href="#path3073"
     transform="translate(180.33523,60.111751)"
     id="use4139-4"
     style="fill:#ffffff;fill-opacity:1"
     width="100%"
     height="100%" />
  <use
     x="0"
     y="0"
     inkscape:tiled-clone-of="#path3073"
     xlink:href="#path3073"
     transform="translate(180.33523,120.22349)"
     id="use4141-6"
     style="fill:#ffffff;fill-opacity:1"
     width="100%"
     height="100%" />
  <use
     x="0"
     y="0"
     inkscape:tiled-clone-of="#path3073"
     xlink:href="#path3073"
     transform="translate(180.33523,180.33523)"
     id="use4143-4"
     style="fill:#ffffff;fill-opacity:1"
     width="100%"
     height="100%" />
  <use
     x="0"
     y="0"
     inkscape:tiled-clone-of="#path3073"
     xlink:href="#path3073"
     transform="translate(180.33523,240.44698)"
     id="use4145-1"
     style="fill:#ffffff;fill-opacity:1"
     width="100%"
     height="100%" />
  <use
     x="0"
     y="0"
     inkscape:tiled-clone-of="#path3073"
     xlink:href="#path3073"
     transform="translate(3e-7,300.55872)"
     id="use4105"
     style="fill:#ffffff;fill-opacity:1"
     width="100%"
     height="100%" />
  <use
     x="0"
     y="0"
     inkscape:tiled-clone-of="#path3073"
     xlink:href="#path3073"
     transform="translate(60.11175,300.55872)"
     id="use4119"
     style="fill:#ffffff;fill-opacity:1"
     width="100%"
     height="100%" />
  <use
     x="0"
     y="0"
     inkscape:tiled-clone-of="#path3073"
     xlink:href="#path3073"
     transform="translate(120.22349,300.55872)"
     id="use4133"
     style="fill:#ffffff;fill-opacity:1"
     width="100%"
     height="100%" />
  <use
     x="0"
     y="0"
     inkscape:tiled-clone-of="#path3073"
     xlink:href="#path3073"
     transform="translate(180.33523,300.55872)"
     id="use4147"
     style="fill:#ffffff;fill-opacity:1"
     width="100%"
     height="100%" />
  <use
     x="0"
     y="0"
     inkscape:tiled-clone-of="#path3073"
     xlink:href="#path3073"
     transform="translate(180.33523,300.55872)"
     id="use4147-5"
     style="fill:#ffffff;fill-opacity:1"
     width="100%"
     height="100%" />
  <use
     x="0"
     y="0"
     inkscape:tiled-clone-of="#path3073"
     xlink:href="#path3073"
     transform="translate(3e-7,360.67046)"
     id="use5185"
     style="fill:#ffffff;fill-opacity:1"
     width="100%"
     height="100%" />
  <use
     x="0"
     y="0"
     inkscape:tiled-clone-of="#path3073"
     xlink:href="#path3073"
     transform="translate(60.11175,360.67046)"
     id="use5187"
     style="fill:#ffffff;fill-opacity:1"
     width="100%"
     height="100%" />
  <use
     x="0"
     y="0"
     inkscape:tiled-clone-of="#path3073"
     xlink:href="#path3073"
     transform="translate(120.22349,360.67046)"
     id="use5189"
     style="fill:#ffffff;fill-opacity:1"
     width="100%"
     height="100%" />
  <use
     x="0"
     y="0"
     inkscape:tiled-clone-of="#path3073"
     xlink:href="#path3073"
     transform="translate(180.33523,360.67046)"
     id="use5191"
     style="fill:#ffffff;fill-opacity:1"
     width="100%"
     height="100%" />
  <use
     x="0"
     y="0"
     inkscape:tiled-clone-of="#path3073"
     xlink:href="#path3073"
     transform="translate(180.33523,360.67046)"
     id="use5193"
     style="fill:#ffffff;fill-opacity:1"
     width="100%"
     height="100%" />
  <use
     x="0"
     y="0"
     inkscape:tiled-clone-of="#path3073"
     xlink:href="#path3073"
     transform="translate(3e-7,420.7822)"
     id="use5503"
     style="fill:#ffffff;fill-opacity:1"
     width="100%"
     height="100%" />
  <use
     x="0"
     y="0"
     inkscape:tiled-clone-of="#path3073"
     xlink:href="#path3073"
     transform="translate(60.11175,420.7822)"
     id="use5505"
     style="fill:#ffffff;fill-opacity:1"
     width="100%"
     height="100%" />
  <use
     x="0"
     y="0"
     inkscape:tiled-clone-of="#path3073"
     xlink:href="#path3073"
     transform="translate(120.22349,420.7822)"
     id="use5507"
     style="fill:#ffffff;fill-opacity:1"
     width="100%"
     height="100%" />
  <use
     x="0"
     y="0"
     inkscape:tiled-clone-of="#path3073"
     xlink:href="#path3073"
     transform="translate(180.33523,420.7822)"
     id="use5509"
     style="fill:#ffffff;fill-opacity:1"
     width="100%"
     height="100%" />
  <use
     x="0"
     y="0"
     inkscape:tiled-clone-of="#path3073"
     xlink:href="#path3073"
     transform="translate(180.33523,420.7822)"
     id="use5511"
     style="fill:#ffffff;fill-opacity:1"
     width="100%"
     height="100%" />
</svg>
