<?xml version="1.0" encoding="UTF-8" standalone="no"?>
<svg
   xmlns:dc="http://purl.org/dc/elements/1.1/"
   xmlns:cc="http://creativecommons.org/ns#"
   xmlns:rdf="http://www.w3.org/1999/02/22-rdf-syntax-ns#"
   xmlns:svg="http://www.w3.org/2000/svg"
   xmlns="http://www.w3.org/2000/svg"
   xmlns:sodipodi="http://sodipodi.sourceforge.net/DTD/sodipodi-0.dtd"
   xmlns:inkscape="http://www.inkscape.org/namespaces/inkscape"
   width="65mm"
   height="55.0812mm"
   viewBox="0 0 65 55.0812"
   version="1.1"
   id="svg8"
   inkscape:version="1.0.2-2 (e86c870879, 2021-01-15)"
   sodipodi:docname="seismic.svg">
  <defs
     id="defs2" />
  <sodipodi:namedview
     id="base"
     pagecolor="#ffffff"
     bordercolor="#666666"
     borderopacity="1.0"
     inkscape:pageopacity="0.0"
     inkscape:pageshadow="2"
     inkscape:zoom="1.4142136"
     inkscape:cx="127.7114"
     inkscape:cy="122.0865"
     inkscape:document-units="mm"
     inkscape:current-layer="layer1"
     inkscape:document-rotation="0"
     showgrid="false"
     fit-margin-top="0"
     fit-margin-left="0"
     fit-margin-right="0"
     fit-margin-bottom="0"
     inkscape:window-width="1267"
     inkscape:window-height="1198"
     inkscape:window-x="1097"
     inkscape:window-y="93"
     inkscape:window-maximized="0" />
  <metadata
     id="metadata5">
    <rdf:RDF>
      <cc:Work
         rdf:about="">
        <dc:format>image/svg+xml</dc:format>
        <dc:type
           rdf:resource="http://purl.org/dc/dcmitype/StillImage" />
        <dc:title></dc:title>
      </cc:Work>
    </rdf:RDF>
  </metadata>
  <g
     inkscape:label="Layer 1"
     inkscape:groupmode="layer"
     id="layer1"
     transform="translate(-41.784264,-90.569353)">
    <path
       style="fill:#1565c0;stroke-width:0.5;fill-opacity:1;stroke:#1565c0;stroke-opacity:1;stroke-miterlimit:4;stroke-dasharray:none"
       d="m 65.873837,144.80788 c -0.111425,-0.44396 -0.362747,-6.75427 -0.558497,-14.02292 -0.494294,-18.35472 -0.76741,-24.31186 -1.124743,-24.53271 -0.169028,-0.10446 -0.320719,0.891 -0.337091,2.21214 -0.01637,1.32114 -0.155338,3.27519 -0.308812,4.34235 -0.153474,1.06715 -0.491539,3.60715 -0.751256,5.64444 -0.441233,3.46116 -0.494486,3.61738 -0.811739,2.38125 -0.322948,-1.25832 -0.914537,-1.82173 -0.926049,-0.88194 -0.0089,0.72545 -0.659917,-0.47125 -1.077469,-1.98056 -0.370144,-1.33795 -0.388986,-1.35048 -1.017324,-0.67603 -0.352108,0.37794 -0.761803,1.2295 -0.910433,1.89236 l -0.270238,1.2052 -0.343942,-1.01424 c -0.312246,-0.92077 -1.666859,-2.64166 -1.666859,-2.11757 0,0.12078 -0.229694,0.029 -0.51043,-0.20403 -0.426046,-0.35359 -0.596949,-0.14202 -1.033763,1.27972 -0.287832,0.93684 -0.534388,1.5049 -0.547902,1.26237 -0.04853,-0.87088 -0.716556,-0.41811 -1.041002,0.70555 -0.312922,1.08376 -0.335031,1.0403 -0.403787,-0.79375 -0.04001,-1.06715 -0.14534,-1.66246 -0.234073,-1.32291 -0.220856,0.84513 -0.815155,0.78083 -0.815155,-0.0882 0,-0.97668 -0.50892,-0.88181 -1.237899,0.23075 -0.541184,0.82595 -0.652467,0.86666 -0.944199,0.34536 -0.181891,-0.32502 -0.480824,-0.49817 -0.664297,-0.38478 -0.183474,0.11339 -0.424114,-0.0297 -0.534756,-0.31807 -0.147083,-0.38329 -0.739203,-0.51707 -2.20237,-0.49757 -6.866424,0.0915 -16.288702,-0.12688 -16.288702,-0.37747 0,-0.22394 14.928727,-0.84098 20.341031,-0.84075 0.578879,3e-5 0.813076,-0.27296 0.975094,-1.13659 0.205746,-1.09672 1.261654,-1.66434 1.261654,-0.67822 0,0.62897 1.130952,2.95179 1.437189,2.95179 0.136498,0 0.357799,-0.58433 0.49178,-1.29851 0.170531,-0.90901 0.332971,-1.15391 0.541541,-0.81644 0.410432,0.6641 1.400148,-0.15695 1.436209,-1.19144 0.01924,-0.5521 0.198889,-0.37743 0.679392,0.66055 0.359276,0.77612 0.665003,1.68893 0.679393,2.02848 0.01439,0.33954 0.116877,0.61736 0.22775,0.61736 0.355921,0 1.209524,-0.99446 1.209524,-1.40911 0,-0.22064 0.171351,-0.72134 0.38078,-1.11266 0.366815,-0.6854 0.39875,-0.68778 0.870725,-0.065 0.26947,0.35557 0.494994,0.91493 0.501165,1.24303 0.01813,0.96392 0.694935,1.10562 1.050175,0.21987 l 0.327433,-0.81641 0.04472,0.88194 0.04472,0.88195 0.359128,-0.88195 c 0.197521,-0.48507 0.582203,-3.42194 0.854849,-6.52638 0.749273,-8.53149 1.174247,-9.68298 1.877696,-5.08775 0.429825,2.80779 1.00693,14.16242 1.146133,22.55024 l 0.07318,4.40973 0.248546,-4.93889 c 0.136698,-2.71639 0.274641,-8.19327 0.306535,-12.17083 0.03566,-4.44718 0.232784,-7.97909 0.511927,-9.17223 l 0.45394,-1.94028 0.234555,2.99861 c 0.129007,1.64924 0.235507,5.28726 0.236672,8.0845 0.0011,2.79723 0.09463,4.99336 0.207715,4.88027 0.113083,-0.11308 0.332091,-6.57625 0.486685,-14.36261 0.154598,-7.786355 0.379575,-14.255495 0.499954,-14.375875 0.582467,-0.58247 0.761961,0.91079 0.998153,8.30388 0.36964,11.570345 0.962441,23.793045 1.163722,23.994325 0.09551,0.0955 0.242609,0.10472 0.326873,0.0204 0.08427,-0.0843 0.338896,-5.46854 0.565845,-11.96505 0.226946,-6.49651 0.60785,-12.764325 0.846452,-13.928495 0.399309,-1.94827 0.458427,-1.27472 0.743147,8.466665 0.330691,11.31418 0.397334,11.62911 0.78987,3.73268 0.158097,-3.18039 0.398589,-5.13501 0.641699,-5.21549 0.529671,-0.17535 0.83234,3.37451 0.878392,10.30226 0.02064,3.10444 0.140829,6.99382 0.267092,8.64305 0.201252,2.62874 0.305445,1.72208 0.844687,-7.35029 0.488527,-8.21907 0.742636,-10.61496 1.234723,-11.64167 l 0.619604,-1.29276 0.260562,4.7625 c 0.143309,2.61937 0.37278,7.46125 0.50994,10.75972 0.289299,6.95725 0.324764,6.85764 0.801254,-2.25036 0.342886,-6.55411 0.754659,-8.63965 1.45777,-7.38326 0.320837,0.57331 1.015245,5.45071 1.061286,7.45429 l 0.03387,1.47378 0.407109,-1.66785 c 0.397697,-1.6293 0.913769,-1.86232 1.384692,-0.62521 0.115891,0.30445 0.213261,0.10862 0.229285,-0.46114 0.01531,-0.54467 0.222532,-1.7353 0.460477,-2.64584 l 0.432625,-1.65552 0.242027,1.76389 c 0.13311,0.97014 0.260756,2.71639 0.283655,3.88056 0.04751,2.41534 0.49204,2.06734 0.891985,-0.69829 0.2339,-1.61744 0.29328,-1.70294 0.74944,-1.0791 0.27248,0.37263 0.49542,1.07051 0.49542,1.55083 0,1.95348 0.41942,0.26144 0.71832,-2.89786 0.64245,-6.79053 1.21271,-6.90329 1.59394,-0.31517 0.15439,2.66788 0.34392,4.57288 0.42119,4.23334 0.25244,-1.10922 0.77575,-0.65067 1.2078,1.05833 l 0.42364,1.67569 0.44907,-2.42421 c 0.24698,-1.33332 0.41582,-2.52394 0.37519,-2.64583 -0.0406,-0.12189 0.0849,-0.301 0.2789,-0.39801 0.20102,-0.10052 0.51043,0.80998 0.71928,2.11666 0.34748,2.17404 0.86822,2.30297 0.86822,0.21497 0,-0.43212 0.22417,-1.09224 0.49815,-1.46693 0.48285,-0.66034 0.51071,-0.6537 0.90705,0.21617 0.22489,0.49359 0.71786,1.09038 1.09548,1.32621 0.59801,0.37346 0.73019,0.31411 1.0245,-0.45998 0.41111,-1.08131 0.932264,-1.14437 1.247564,-0.15096 0.16225,0.5112 0.44184,0.6835 0.91033,0.56098 0.44396,-0.11609 0.81057,0.0743 1.06756,0.55451 0.39139,0.73132 0.3914,0.73132 1.00531,-0.0825 0.33765,-0.44764 0.76597,-0.71991 0.95183,-0.60505 0.18585,0.11487 0.83747,-0.0949 1.44803,-0.46626 1.10676,-0.67306 1.11176,-0.67276 1.65077,0.0968 0.29736,0.42453 0.54065,1.05406 0.54065,1.39894 0,0.34489 0.15875,0.62706 0.35278,0.62706 0.19403,0 0.35725,-0.0397 0.36271,-0.0882 0.0949,-0.84265 1.39072,-3.96527 1.6864,-4.06382 0.22117,-0.0737 0.83281,0.74408 1.3592,1.81736 l 0.95706,1.95142 0.63435,-1.04311 c 0.75992,-1.24957 1.18473,-1.31033 1.74346,-0.24935 0.2299,0.43656 0.59267,0.91281 0.80616,1.05833 0.26748,0.18232 0.22437,0.36981 -0.13865,0.60304 -0.3987,0.25615 -0.64553,0.11189 -1.01494,-0.59317 l -0.48813,-0.93162 -0.49563,0.94594 c -0.7212,1.37646 -1.40479,1.1666 -2.37702,-0.72974 -0.72305,-1.41032 -0.89465,-1.56396 -1.08359,-0.97014 -0.49928,1.56921 -1.73047,3.719 -2.06586,3.60721 -0.19659,-0.0655 -0.57006,-0.73328 -0.82992,-1.48389 -0.60808,-1.7564 -0.62658,-1.76928 -1.58073,-1.10097 -0.44377,0.31083 -1.06356,0.56515 -1.3773,0.56515 -0.31374,0 -0.75126,0.39687 -0.97227,0.88194 -0.5138,1.12766 -0.90297,1.11527 -1.43189,-0.0456 -0.23243,-0.51014 -0.52305,-0.82708 -0.64582,-0.70431 -0.12277,0.12276 -0.59307,-0.0191 -1.04512,-0.31533 -0.711574,-0.46623 -0.821924,-0.4692 -0.821924,-0.022 0,0.8824 -0.60299,0.94761 -1.8669,0.20189 l -1.21551,-0.71717 -0.21953,1.37282 c -0.12073,0.75506 -0.45643,1.56945 -0.746,1.80977 -0.43899,0.36433 -0.59488,0.26935 -0.93814,-0.57155 l -0.41166,-1.00848 -0.28186,1.50234 c -0.15503,0.82629 -0.50692,1.82365 -0.78198,2.21636 -0.47222,0.67419 -0.51451,0.62974 -0.75811,-0.79678 -0.21233,-1.24339 -0.30991,-1.38592 -0.5513,-0.80525 -0.16132,0.38805 -0.32111,1.10243 -0.35509,1.5875 -0.13044,1.8619 -0.99154,-1.92146 -1.04382,-4.58611 -0.0543,-2.7696 -0.62719,-2.62313 -0.68988,0.17639 -0.0174,0.77611 -0.24372,2.20486 -0.50299,3.175 l -0.47138,1.76389 -0.268,-2.37696 c -0.1474,-1.30732 -0.3895,-2.30187 -0.53799,-2.2101 -0.14848,0.0918 -0.38281,1.52142 -0.52072,3.177 -0.433832,5.20815 -0.723381,5.38219 -1.197257,0.71965 -0.429634,-4.22725 -0.752986,-5.63865 -0.752986,-3.28669 0,0.79081 -0.19593,1.33096 -0.529167,1.45884 -0.341644,0.1311 -0.534173,-0.0118 -0.543292,-0.40323 -0.0093,-0.40137 -0.210037,-0.24858 -0.593757,0.45204 l -0.579635,1.05833 -0.455535,-1.5875 c -0.250543,-0.87312 -0.567048,-3.01625 -0.703343,-4.7625 -0.219979,-2.81843 -0.278014,-3.01652 -0.516763,-1.76388 -0.147924,0.77611 -0.43458,4.66548 -0.637011,8.64305 -0.202435,3.97757 -0.583396,7.93482 -0.846589,8.79389 l -0.478526,1.56194 -0.234026,-2.23904 c -0.128714,-1.23147 -0.338603,-6.18735 -0.466418,-11.01306 -0.127815,-4.8257 -0.343499,-8.84268 -0.479298,-8.92661 -0.135802,-0.0839 -0.353455,2.10532 -0.483679,4.865 -0.396854,8.41018 -0.974112,17.16916 -1.245571,18.89971 l -0.257277,1.64011 -0.392045,-1.41111 c -0.215625,-0.77611 -0.51543,-5.06236 -0.666232,-9.525 l -0.274189,-8.11388 -0.280691,4.03135 c -0.15438,2.21725 -0.360998,4.11167 -0.459148,4.20982 -0.533904,0.5339 -0.857744,-0.97295 -1.126687,-5.24256 l -0.299985,-4.7625 -0.278687,4.23333 c -0.280416,4.25954 -1.162788,11.10932 -1.470752,11.41728 -0.09107,0.0911 -0.170233,0.0994 -0.175916,0.0186 -0.0057,-0.0808 -0.239441,-2.68699 -0.519466,-5.79143 -0.280028,-3.10445 -0.630728,-8.0257 -0.779332,-10.93611 -0.267469,-5.23828 -0.273942,-5.16636 -0.641632,7.12892 -0.204294,6.83132 -0.483944,12.5331 -0.62145,12.6706 -0.586221,0.58622 -0.789185,-0.57198 -0.955569,-5.45292 l -0.176389,-5.17437 -0.264583,4.37691 c -0.145521,2.4073 -0.264584,6.63058 -0.264584,9.38506 0,7.4171 -0.521758,11.1781 -1.184437,8.53778 z"
       id="path861" />
  </g>
</svg>
